<?xml version="1.0" encoding="UTF-8" standalone="no"?>
<!-- Created with Inkscape (http://www.inkscape.org/) -->

<svg
   width="100"
   height="30"
   viewBox="0 0 26.458333 7.9374998"
   version="1.1"
   id="svg5"
   inkscape:version="1.1 (c68e22c387, 2021-05-23)"
   sodipodi:docname="China_Eastern_logo.svg"
   xmlns:inkscape="http://www.inkscape.org/namespaces/inkscape"
   xmlns:sodipodi="http://sodipodi.sourceforge.net/DTD/sodipodi-0.dtd"
   xmlns:xlink="http://www.w3.org/1999/xlink"
   xmlns="http://www.w3.org/2000/svg"
   xmlns:svg="http://www.w3.org/2000/svg"
   xmlns:rdf="http://www.w3.org/1999/02/22-rdf-syntax-ns#"
   xmlns:cc="http://creativecommons.org/ns#"
   xmlns:dc="http://purl.org/dc/elements/1.1/">
  <title
     id="title7982">Cahturbate logo</title>
  <sodipodi:namedview
     id="namedview7"
     pagecolor="#ffffff"
     bordercolor="#111111"
     borderopacity="1"
     inkscape:pageshadow="0"
     inkscape:pageopacity="0"
     inkscape:pagecheckerboard="1"
     inkscape:document-units="px"
     showgrid="false"
     objecttolerance="1"
     gridtolerance="1"
     guidetolerance="1"
     units="px"
     inkscape:zoom="4"
     inkscape:cx="124.375"
     inkscape:cy="31"
     inkscape:window-width="1366"
     inkscape:window-height="746"
     inkscape:window-x="-8"
     inkscape:window-y="-8"
     inkscape:window-maximized="1"
     inkscape:current-layer="layer1"
     height="30px" />
  <defs
     id="defs2">
    <linearGradient
       inkscape:collect="always"
       xlink:href="#linearGradient44337"
       id="linearGradient44339"
       x1="708.56342"
       y1="-13.334791"
       x2="708.56342"
       y2="328.56567"
       gradientUnits="userSpaceOnUse" />
    <linearGradient
       inkscape:collect="always"
       id="linearGradient44337">
      <stop
         style="stop-color:#f47320;stop-opacity:1;"
         offset="0"
         id="stop44333" />
      <stop
         style="stop-color:#fec549;stop-opacity:1"
         offset="1"
         id="stop44335" />
    </linearGradient>
    <linearGradient
       inkscape:collect="always"
       xlink:href="#linearGradient53219"
       id="linearGradient51077"
       gradientUnits="userSpaceOnUse"
       x1="711.18878"
       y1="4.8622079"
       x2="705.93805"
       y2="284.37296"
       gradientTransform="translate(44.769386,562.70186)" />
    <linearGradient
       inkscape:collect="always"
       id="linearGradient53219">
      <stop
         style="stop-color:#f57f22;stop-opacity:1"
         offset="0"
         id="stop53215" />
      <stop
         style="stop-color:#fecc68;stop-opacity:1"
         offset="1"
         id="stop53217" />
    </linearGradient>
  </defs>
  <g
     inkscape:label="Capa 1"
     inkscape:groupmode="layer"
     id="layer1">
    <g
       id="g82585"
       transform="matrix(0.01718987,0,0,0.01718987,-6.2101812,-17.429693)">
      <g
         id="#ffffffff"
         transform="matrix(1.0005867,0,0,1.0282225,342.74281,462.86775)"
         style="fill:url(#linearGradient44339);fill-opacity:1">
        <path
           id="path2"
           style="fill:url(#linearGradient51077);fill-opacity:1;stroke-width:1"
           d="m 308.76925,563.06198 c -24.31,-0.13001 -48.04042,9.59957 -66.52042,25.14957 -24.69,20.61 -41.16985,49.48981 -51.32985,79.66981 -26.52,-6.25 -52.56957,-18.85884 -70.21957,-40.14884 -13.2,-15.68 -20.27044,-35.95004 -20.960439,-56.34004 -11.279996,5.38 -22.239246,11.52954 -32.229243,19.06954 -7.299999,5.62 -14.259646,12.05927 -18.769647,20.20927 -3.519993,6.25 -4.981041,13.87019 -2.901042,20.85019 2.49,8.75001 9.100275,15.58025 16.170275,20.95025 10.849999,8.07 23.389492,13.53056 36.089492,17.98056 28.230004,9.63 57.901144,14.33961 87.551144,16.75961 -3.79,17.23001 -6.01991,34.85048 -5.82991,52.51048 0.4,27.81999 6.32926,56.45916 22.07926,79.81916 12.08,18.11004 30.92039,31.57967 52.1104,36.72963 17.95999,4.33003 37.41018,5.11099 54.96018,-1.37898 20.70999,-7.54004 37.6891,-23.50082 48.4991,-42.50082 6.11,-10.92 10.57052,-23.0901 10.93053,-35.7001 0.24999,-8.72001 -2.00012,-17.98976 -8.23012,-24.38975 -7.23,-7.42001 -18.0703,-9.99035 -28.13029,-9.67035 -3.24001,18.71 -14.56984,35.30111 -28.86984,47.44111 -9.38,7.67 -20.95038,14.36996 -33.50038,13.30996 -9.9,-0.45 -20.00959,-4.31977 -26.40959,-12.13977 -8.39,-10.09001 -10.4999,-23.81113 -10.3799,-36.54113 0.49,-22.87 7.46943,-45.14938 17.06943,-65.74938 0.5,-1.61 2.57071,-1.08059 3.82071,-1.39059 24.55,-2.19001 49.08982,-7.69948 71.27982,-18.67948 15.08,-7.61 29.27004,-17.91014 38.97004,-31.94013 7.21999,-10.43 11.67944,-23.47037 9.36944,-36.20037 -1.72,-10.23 -8.11952,-19.22973 -16.48952,-25.15973 -13.89,-9.82 -31.45006,-12.63969 -48.13006,-12.51968 z m 702.72435,1.86185 c -5.6775,0.2375 -11.2843,1.53798 -16.39427,4.10798 -11.44,5.62 -20.03056,15.56996 -26.80057,26.13996 -9.76001,15.47 -16.23902,32.7597 -21.36901,50.2397 -7.25001,-1.37 -15.05015,-0.84977 -21.53014,2.91024 -10.62999,5.97 -17.44048,16.69014 -22.77044,27.31014 -7.41999,15.54 -12.33936,32.21996 -15.54936,49.09996 -0.38,-10.71 1.2298,-21.56054 -1.00022,-32.16054 -1.91999,-10 -7.08057,-19.68954 -15.5406,-25.62954 -15.51997,-10.92 -37.98008,-8.65935 -52.39006,3.13065 -7.61997,6.1 -12.52959,15.41888 -13.04957,25.19887 9.87998,-1.84 21.27011,-3.1292 29.93011,3.1408 8.93,6.77 10.75993,18.8399 11.19999,29.31991 0.52995,27.52 -6.03971,54.53988 -6.92971,81.98987 -0.21002,9.19 -0.45063,19.02975 3.99938,27.37976 3.34998,6.41 10.48011,9.67978 17.3901,10.49979 12.83003,1.58997 25.73046,-0.45971 38.46047,-2.09972 -1.71005,-3.87998 -4.23077,-7.31985 -5.98078,-11.17981 -5.50998,-10.98 -8.12982,-23.33005 -7.74982,-35.60005 0.47004,-25.12 3.73995,-50.82043 14.63994,-73.73043 7.61007,-16.07 20.32028,-30.43919 37.17031,-36.98919 -6.83006,40.52 -9.33054,81.66018 -9.53058,122.72019 0.01,9.19 -0.36867,18.9092 3.61129,27.43918 2.56,5.54003 8.34943,8.75962 14.20941,9.61964 8.71001,1.34995 17.6005,0.51124 26.33052,-0.39883 3.47003,-0.22992 7.10876,-1.71054 10.4487,-0.0405 13.87006,4.26997 29.11111,-1.04934 39.48111,-10.65934 12.6,-11.45997 20.6296,-27.0509 26.0596,-42.9909 6.2,-18.93 9.1207,-39.22917 6.5007,-59.07917 -1.7401,-12.01 -5.9513,-24.8599 -16.1513,-32.3099 -9.41,-6.77 -21.9697,-5.65038 -32.5397,-2.63038 -13.75003,4.03 -24.5497,14.24934 -32.88969,25.51934 0.48999,-12.76 1.52965,-25.48998 2.66963,-38.19998 15.02999,-1.68 29.97026,-5.78007 43.06016,-13.51007 15.6701,-9.1 28.4606,-23.4997 34.5006,-40.6897 5.0401,-14.23 5.599,-30.56968 -0.8611,-44.44967 -4.56,-9.95001 -13.359,-17.86036 -23.8189,-21.15035 -5.39,-1.68 -11.1386,-2.50538 -16.8162,-2.26788 z m -554.58524,0.001 c -1.35892,0.0345 -2.71439,0.12041 -4.05936,0.25666 -9.99002,1.18 -19.08949,6.44056 -26.22949,13.35056 -10.37,9.91 -17.61072,22.55885 -23.48072,35.51885 -8.66,19.38 -14.17872,39.98047 -18.49872,60.71047 -7.29,-1.07 -14.50047,-2.56952 -21.72047,-4.01952 -1.05,2.86 -1.38997,6.44997 1.11004,8.67996 4.88,4.74001 11.99939,5.71992 18.40938,6.93992 -6.91999,39.71 -9.44998,80.06921 -9.79998,120.33921 0.13,10.33 -0.97896,21.47086 4.30104,30.83088 3.56,6.39998 10.89927,9.42929 17.87926,10.17928 12.65001,1.39004 25.3405,-0.62014 37.8805,-2.23016 -6.78,-9.67 -8.74048,-21.64012 -10.87049,-33.00012 -3.83999,-23.72 -4.70928,-47.79881 -4.57928,-71.78881 0.16,-1.83 -0.53054,-4.02087 0.96946,-5.46087 3,-3.6 6.82973,-6.88024 11.53973,-7.83025 5.93,-1 12.58061,1.23035 15.95061,6.39036 4.08999,6.15 4.87932,13.77039 5.33932,20.96039 0.94,26.6 -4.75929,53.13041 -1.77928,79.71041 1.2,9.95002 3.81992,20.36948 10.78997,27.93945 9.10994,9.63004 24.25952,12.0597 36.55952,8.07964 10.14001,-3.63 19.44018,-9.49975 27.60022,-16.47971 -8.32005,-1.00999 -16.86997,-3.7597 -22.74998,-10.00972 -7.79998,-7.99997 -10.16002,-19.57055 -10.91004,-30.33056 -1.15003,-20.37999 2.39933,-40.59982 3.93932,-60.85982 0.88003,-12.38 1.72062,-25.09975 -1.54936,-37.21975 -1.99002,-7.56 -6.83959,-14.68965 -14.15963,-17.91965 -8.68999,-3.78 -18.91105,-4.19118 -27.81104,-0.85118 -13.14,4.82 -24.42886,13.90996 -33.08886,24.78996 0.34,-11.56999 1.27974,-23.09966 2.43974,-34.60966 11.89,-1.35 23.67992,-4.13933 34.58992,-9.11934 14.41996,-6.49999 27.23949,-16.90043 35.73948,-30.32043 8.95999,-14.02999 13.28988,-31.42963 10.02994,-47.91963 -2.00006,-10.66999 -7.79024,-20.79973 -16.75023,-27.08973 -7.81371,-5.55625 -17.51801,-7.85853 -27.03052,-7.61709 z M 1504.9198,589.5611 c -18.46,24.03999 -46.2407,39.1704 -75.0507,47.2004 -24.63,6.98 -50.2496,9.76003 -75.7595,10.71003 -35.4101,1.53 -70.7106,-2.43083 -106.0206,-4.30083 0.4999,-11.52 3.8898,-23.49857 -0.1802,-34.72857 -2.38,-6.96 -9.2091,-11.51143 -16.3591,-12.25144 -12.2801,-1.44999 -24.4107,2.12043 -36.0207,5.72043 6.78,11.94 7.5802,26.02047 8.8202,39.39047 -17.6299,0.04 -35.4601,-0.15034 -52.8001,3.44966 -6.57,1.55 -13.4992,3.4702 -18.4591,8.31021 -3.59,3.36999 -4.5409,8.82985 -2.9509,13.39985 2.43,7.38001 7.7904,13.25049 12.8504,18.94049 17.06,-14.9 40.4004,-19.08015 62.2604,-21.04015 0.11,52.53 -5.2501,104.85041 -7.8801,157.2704 -0.18,7.94001 -1.0804,15.93874 0.1,23.83872 -4.5999,-3.93002 -8.8595,-8.37921 -11.5895,-13.83921 -5.86,-11.37 -6.8701,-24.42049 -7.4701,-36.98049 -0.8199,-24 0.5993,-47.99907 0.3193,-71.99907 0.09,-3.63 -2.4002,-6.9906 -5.9002,-7.95059 -7.18,-2.12001 -14.7498,-0.39942 -21.8698,1.10058 -2.75,-8.59 -6.8594,-17.58989 -14.8494,-22.4699 -6.73,-4.2 -15.1799,-3.54005 -22.5699,-1.74005 -12.6,3.2 -23.0101,11.96898 -30.7501,22.11898 -10.58,13.95 -17.2205,30.52982 -21.3104,47.44982 -4.07,17.46999 -5.5691,35.76985 -2.5291,53.52985 2.05,11.01 6.0787,22.48076 14.9386,29.86074 8.12,6.87001 19.9802,7.54969 29.7003,4.02972 9.0999,-3.42005 16.09,-10.65043 21.82,-18.26043 5.08,-6.86 9.4008,-14.25887 13.1609,-21.91887 0.54,-1.27 1.4393,-2.3298 2.5393,-3.1698 1.39,15.45 2.1795,31.21977 7.3295,45.99977 2.7,7.63003 7.2909,15.37892 15.0309,18.7389 8.56,3.79 18.3605,1.71032 26.6204,-1.90966 8.3501,-3.46006 15.7393,-8.72911 23.1293,-13.82911 13.9901,-1.48997 27.1304,-7.05108 39.5104,-13.48106 -7.06,-17.61 -8.7703,-36.76961 -10.0504,-55.53961 -2.1199,-40.5 0.4098,-81.0701 3.4898,-121.4601 45.89,1.67 91.2202,9.59002 136.7502,15.05002 28.82,3.56 57.7707,6.46046 86.8307,6.88046 16.58,0.49 34.4992,-1.44967 48.0392,-11.93967 10.3101,-7.8 15.9399,-20.68008 15.9799,-33.48008 v -4.92 c -2.17,-18.52 -12.4393,-36.41082 -28.8493,-45.78081 z m -838.46423,6.29754 c -10.27384,0.0726 -20.35829,3.01903 -30.10578,6.07278 4.61998,7.38 6.2396,16.08972 7.44953,24.57972 1.71005,12.91999 2.17064,25.97039 2.30066,39.0004 -13.00001,1.75999 -26.07117,3.18046 -39.19114,3.60046 -6.12001,10.02 3.23002,24.62927 14.82004,23.48927 8.01998,0.09 16.04093,0.29041 24.07088,0.22041 -1.37999,40.59 -4.95063,81.05945 -7.2006,121.60945 -0.42004,9.9 -1.1792,19.82027 -0.60921,29.7303 -6.49003,-5.13007 -11.01059,-12.44021 -13.50064,-20.27021 -3.4,-10.69 -4.04032,-21.99932 -4.39032,-33.13932 -0.43,-22.7 0.62975,-45.3999 0.39979,-68.0999 0.16998,-3.64 -2.40975,-7.00074 -5.8797,-7.96075 -7.19004,-2.13 -14.7399,-0.34941 -21.86987,1.10059 -2.7,-8.56 -6.83021,-17.45015 -14.7102,-22.39015 -7.67005,-4.76 -17.34002,-3.51007 -25.54999,-0.97007 -16.02998,5.36 -27.69019,18.91967 -35.71024,33.25967 -10.29994,18.7 -15.86938,39.81994 -17.35936,61.05994 -0.84996,14.59 0.0807,29.72008 5.86066,43.32008 3.48997,8.17999 9.54947,15.87015 18.17947,18.92018 11.11999,3.89 23.97986,0.83032 32.77992,-6.8297 11.60997,-9.89 19.0694,-23.57079 25.81938,-37.00079 0.72003,0.69 1.09027,1.54033 1.12027,2.53032 0.67001,9.58001 1.54029,19.16969 3.22034,28.62968 1.97,10.2 4.61976,21.02081 11.94978,28.80081 5.86995,6.29998 15.21968,8.00926 23.37964,6.2192 12.45004,-2.68994 23.23082,-9.93985 33.40082,-17.25984 13.62,-1.6 26.40939,-7.08042 38.47944,-13.34045 -7.82001,-19.65998 -9.23966,-41.08954 -10.36967,-61.99954 -1.18002,-28.64 0.01,-57.3195 1.68995,-85.9195 8.62003,-0.01 17.23017,0.0594 25.8502,-0.0406 5.97995,-0.26 12.79974,-1.349 16.78975,-6.299 3.62995,-4.74 2.83998,-11.24096 1.10999,-16.56096 -2.68995,-7.81 -6.99044,-15.2091 -12.97047,-20.96909 -9.01997,3.71999 -18.4392,6.37996 -27.96918,8.38995 0.64999,-8.10999 1.43952,-16.2013 2.19958,-24.30129 0.84996,-9.04001 2.09979,-18.82949 -2.34017,-27.16949 -3.15999,-6.18 -10.0597,-9.40031 -16.72968,-9.86031 -1.47507,-0.115 -2.94615,-0.16262 -4.41387,-0.15225 z m 666.32453,98.70309 c -17.5,0.11001 -33.8907,8.96015 -46.1107,21.04015 -16.2799,16 -26.5501,38.23954 -27.2501,61.12954 -0.35,16.97 2.5897,34.71036 12.2397,49.03036 8.04,12.16003 21.0308,20.56916 35.0908,24.05914 17.46,4.32001 36.3389,2.71014 52.8689,-4.32981 7.39,-3.29999 14.7601,-7.83984 19.0201,-14.93983 3.52,-5.8 2.6603,-13.80053 -1.9697,-18.75053 -4.74,-5.28 -11.9491,-7.21965 -18.7491,-8.07965 -2.16,5.47 -4.9503,10.80011 -9.1703,14.96011 -5.36,5.57001 -13.1802,9.25995 -21.0102,8.09995 -6.99,-0.91 -12.8704,-5.78926 -16.3504,-11.71926 -4.79,-8.05 -6.1196,-17.57087 -6.4596,-26.78087 14.73,3.85999 30.6794,5.91107 45.4193,0.94108 11.3101,-3.68001 20.86,-11.96055 26.6,-22.32055 8.0601,-14.50999 10.3399,-31.99963 7.1098,-48.20963 -1.56,-6.77001 -4.0086,-14.17117 -9.9786,-18.31117 -4.5,-3.03 -10.0803,-0.85996 -14.3602,1.45005 -8.15,-4.73 -17.4898,-7.47907 -26.9397,-7.26908 z m -531.27883,5.24336 c -2.98686,0.0716 -5.96608,0.37158 -8.90233,0.92658 -3.32,0.77 -7.12975,1.6993 -9.14976,4.67929 -1.7,4.59 -2.46014,9.4699 -3.39018,14.2699 -4.00995,23.77 -4.73987,47.97097 -4.0799,72.03097 -1.72999,4.47 -4.95926,8.85929 -9.41924,10.94929 -4.04999,1.84 -8.06054,-1.47925 -9.94056,-4.86926 -4.48997,-7.82999 -5.60003,-17.04039 -6.36002,-25.88039 -1.45999,-22.39 2.02998,-44.77965 7.06002,-66.53965 -12.45003,-2.04 -25.57,-3.7307 -37.85996,0.0493 -4.75007,1.66 -10.35017,4.66076 -11.09022,10.18076 -2.71993,17.58 -4.43935,35.32949 -4.6993,53.11949 -0.04,18.43 1.02916,37.25964 7.25916,54.76964 3.96999,11.09 11.14008,22.06016 22.52009,26.54017 7.45996,2.78 16.81051,4.21072 23.5305,-1.10926 10.47997,-8.02002 15.92044,-20.54007 21.02044,-32.32007 2.33004,15.6 5.31938,31.63014 13.50941,45.35011 4.15001,6.89006 10.85996,13.09976 19.24995,13.67974 15.45002,0.77999 31.71041,-5.38019 41.26041,-17.86017 -7.64995,-2.08005 -14.68066,-6.47972 -19.51065,-12.80969 -8.47998,-10.89002 -11.89902,-24.74099 -13.72903,-38.17099 -2.88999,-23.53001 -1.09102,-47.43999 3.04895,-70.70999 1.94997,-9.59999 3.78059,-19.40977 8.19055,-28.24977 -3.65995,-3.71 -8.6705,-5.56945 -13.67047,-6.61946 -4.86876,-1.01249 -9.86978,-1.52587 -14.84786,-1.40654 z"
           sodipodi:nodetypes="ccccccccccccccccccccccccccccccsccccccccccccccccccccccccccccccccccccssscccccccccccccccccccccccccccccccccsscccccccccccccccccccccccccccccccccccccccccssscccccccccccccccccccccccccccccccccccccscccccccccccccccccccscccccccccccccccccccccccs" />
      </g>
      <path
         style="opacity:1;fill:#ffd37e;fill-opacity:1;stroke:#000000;stroke-width:0;stroke-miterlimit:4;stroke-dasharray:none;stroke-opacity:1"
         d="m 567.20203,1453.3237 c -27.64229,-7.8402 -39.44552,-13.5037 -49.00236,-23.5129 -20.71818,-21.6986 15.75953,-46.5051 85.51078,-58.151 93.25694,-15.5707 181.4633,-14.1302 549.70805,8.977 92.6671,5.8148 146.6872,7.5402 236.0624,7.5402 139.455,0 178.8016,-4.1458 232.8625,-24.5362 l 16.3671,-6.1733 22.1062,6.0138 c 32.4381,8.8241 51.3804,17.7714 62.0688,29.3176 11.174,12.0708 10.9779,18.4294 -0.8504,27.5596 -17.6734,13.6418 -34.2196,14.9004 -194.278,14.778 -145.2341,-0.1111 -154.0612,-0.457 -289.0132,-11.3229 -202.5706,-16.3103 -234.0081,-18.09 -323.48255,-18.3132 -82.44921,-0.2056 -108.41797,1.8782 -167.04432,13.4041 -36.34152,7.1448 -97.99597,24.9148 -121.29501,34.9598 -20.47365,8.8268 -26.89828,8.7687 -59.71999,-0.5406 z"
         id="path66070" />
      <path
         style="fill:#0c5874;fill-opacity:1;stroke-width:1.57578"
         d="m 607.9328,1474.7428 c -47.02424,-8.138 -68.96947,-14.2726 -86.62381,-24.2152 -26.75509,-15.0683 -32.15575,-40.9769 -12.88491,-61.8133 11.53414,-12.471 37.13863,-23.8716 70.1831,-31.2492 4.66762,-1.0422 4.56528,-1.1538 -5.54813,-6.0398 -34.03264,-16.4416 -54.68112,-43.033 -66.166,-85.2097 -3.82701,-14.0539 -4.16423,-17.8202 -4.26485,-47.6327 l -0.10918,-32.3721 -8.71843,-1.0655 c -14.36385,-1.7551 -42.14782,-8.2366 -57.61269,-13.4401 -32.2551,-10.8528 -54.50924,-26.4941 -64.66733,-45.4516 -3.06106,-5.7126 -3.69114,-9.2716 -3.71377,-20.9779 -0.0234,-12.2115 0.5512,-15.2617 4.29456,-22.7939 5.05072,-10.1625 18.66406,-24.2863 32.13719,-33.342 5.23105,-3.516 20.38925,-11.8706 33.68485,-18.5658 l 24.17382,-12.1733 0.0117,16.0248 c 0.0158,20.8946 2.26627,34.206 7.74182,45.7871 7.70839,16.3039 24.7166,31.876 43.51057,39.837 l 7.12125,3.0163 6.38966,-12.4442 c 18.48962,-36.0099 42.7341,-61.2244 72.34177,-75.236 15.89069,-7.5203 27.94615,-10.6733 45.32586,-11.8544 40.23237,-2.7343 75.68824,13.5015 86.56399,39.6394 1.56721,3.7666 3.20618,6.8456 3.6421,6.8421 0.43592,-0.01 2.41388,-2.8119 4.39548,-6.2409 6.45856,-11.1763 22.14058,-26.24 32.62436,-31.3379 31.92867,-15.5257 70.35243,-3.799 85.51458,26.0987 5.97179,11.7757 7.95888,22.6807 7.05451,38.715 -1.21053,21.4625 -10.63033,42.8645 -25.54703,58.0431 l -5.55825,5.6559 7.77027,7.1823 c 4.27364,3.9503 8.21556,8.5689 8.75983,10.2634 0.86992,2.7085 2.20645,1.9264 11.05175,-6.4671 13.17429,-12.501 27.18453,-19.1101 42.58096,-20.0865 6.20157,-0.3932 13.98953,0.026 17.30661,0.9306 4.50571,1.2294 6.16471,1.1761 6.55959,-0.2106 1.79291,-6.2963 5.99683,-16.6296 7.70401,-18.9368 1.56933,-2.1208 5.35833,-2.9086 17.40463,-3.6188 l 15.39857,-0.9078 -0.063,-4.8608 c -0.0346,-2.6735 -0.95387,-9.7952 -2.04277,-15.826 -1.72638,-9.5606 -3.1396,-12.4405 -11.03332,-22.4837 -4.97935,-6.3352 -9.05333,-12.0006 -9.05333,-12.5897 0,-0.5892 9.80823,-4.1458 21.79609,-7.9038 18.47329,-5.7909 24.33342,-6.9357 38.44032,-7.5093 15.8346,-0.644 17.068,-0.4611 25.3517,3.7579 14.6755,7.4739 22.0554,20.1933 22.9319,39.5219 0.3531,7.7905 0.7016,8.4913 4.4186,8.8829 16.1035,1.6966 34.3071,27.0843 34.7412,48.4521 l 0.1336,6.5769 10.1553,1.8491 c 8.752,1.5936 11.2062,1.4801 17.7624,-0.8209 6.8504,-2.4043 8.127,-3.6603 12.8293,-12.6228 16.5623,-31.5669 60.2485,-41.6516 91.1517,-21.0416 4.2055,2.8047 8.1172,4.5283 8.693,3.8301 0.5758,-0.6982 3.7313,-4.6146 7.0122,-8.703 7.3588,-9.1698 17.4277,-16.1702 26.8338,-18.6563 7.0567,-1.8651 7.1896,-2.0258 12.0138,-14.5276 21.7993,-56.4913 63.7523,-80.7061 105.7838,-61.0568 43.1218,20.1588 46.8076,84.0158 7.2075,124.8758 -5.5422,5.7187 -5.6526,6.0439 -2.6161,7.7021 4.0913,2.2343 14.0307,12.0569 16.2521,16.0615 1.608,2.8985 2.1778,2.5937 8.5736,-4.5865 7.7532,-8.704 22.6829,-18.8217 31.7224,-21.4981 l 6.0659,-1.7959 v -9.0489 c 0,-11.1469 1.8976,-16.3514 8.4195,-23.0926 9.4289,-9.7462 25.5795,-15.4248 48.2503,-16.9652 9.5363,-0.6479 14.6629,-1.635 14.6629,-2.8231 0,-1.0049 -4.3734,-7.6203 -9.7188,-14.7009 -5.3453,-7.0805 -9.4468,-13.1209 -9.1147,-13.4229 0.3322,-0.302 9.8773,-3.5314 21.2112,-7.1764 16.8533,-5.42 23.4948,-6.7689 36.4588,-7.4045 19.5282,-0.9575 26.7064,0.8199 36.0167,8.9184 8.1747,7.1107 13.0556,17.1169 14.6056,29.9433 l 1.0562,8.7389 24.8861,1.8368 c 65.8513,4.8603 116.0466,-1.0302 154.0778,-18.0816 14.6371,-6.5628 30.8952,-20.3231 43.6171,-36.9164 l 5.7406,-7.4876 9.7009,5.1379 c 14.7158,7.7939 30.0752,23.4132 36.7789,37.4012 17.896,37.3421 6.0564,76.141 -28.3085,92.7692 -18.9855,9.1863 -44.9996,10.6978 -98.2738,5.7097 -9.4788,-0.8876 -17.4622,-1.3887 -17.7407,-1.1135 -0.2787,0.2751 0.616,4.2829 1.9875,8.9062 1.8685,6.2993 2.3022,12.7629 1.7302,25.7893 -0.8864,20.1826 -4.9776,33.2302 -14.5467,46.3925 -5.8802,8.0881 -5.8934,8.1411 -2.5916,10.4265 1.8255,1.2635 5.4377,5.948 8.0274,10.41 3.8752,6.6767 4.711,9.8967 4.7235,18.1916 0.032,21.3333 -11.1432,33.0945 -44.37,46.6997 l -3.9628,1.6227 4.7553,1.8393 c 21.5211,8.3238 40.037,22.0857 45.3944,33.7389 3.473,7.555 3.8496,22.268 0.7567,29.5827 -7.0093,16.5775 -30.1354,26.686 -69.9285,30.5664 -36.9933,3.6073 -102.2193,5.2561 -171.9909,4.3476 -77.7992,-1.013 -126.5064,-3.5061 -280.5749,-14.3618 -172.0725,-12.1242 -251.97052,-15.5852 -333.36165,-14.4408 -43.84148,0.6165 -63.55471,1.5541 -83.53788,3.9736 -61.66876,7.4664 -110.60367,18.1502 -160.1021,34.9545 -29.07772,9.8717 -33.16423,10.878 -39.6292,9.7592 z m 20.70009,-25.7706 c 54.88547,-19.8416 124.72091,-34.8075 193.29773,-41.4246 69.08404,-6.6659 186.72738,-3.4629 376.47758,10.2498 77.4543,5.5973 162.4338,11.0531 221.1314,14.1967 41.0891,2.2006 227.0294,1.0993 249.6641,-1.4786 23.7486,-2.705 40.0322,-6.2207 48.5372,-10.4795 8.2262,-4.1193 10.9066,-7.5545 10.9066,-13.9778 0,-16.3796 -26.496,-30.7357 -75.4374,-40.8738 -19.1329,-3.9633 -19.9888,-4.0102 -26.4597,-1.4479 -27.1502,10.7506 -57.6887,17.0397 -108.1378,22.2703 -23.0247,2.387 -41.488,2.7755 -126.8139,2.668 -55.4528,-0.07 -115.0221,-0.9574 -133.9468,-1.996 -18.7446,-1.0285 -53.6974,-2.903 -77.6731,-4.1654 -23.9759,-1.2622 -74.9786,-4.0645 -113.3397,-6.2273 -38.361,-2.1626 -85.79718,-4.6435 -105.41359,-5.5129 -19.61646,-0.8693 -49.57616,-2.2905 -66.57711,-3.1581 -53.82385,-2.7469 -175.25041,-3.7228 -208.44974,-1.6751 -66.81886,4.121 -110.3611,11.0785 -138.15032,22.0743 -28.69632,11.3548 -37.23807,24.1406 -25.04064,37.482 8.59294,9.399 29.66017,17.358 64.91042,24.5227 22.95838,4.6662 24.84634,4.6174 40.51477,-1.0468 z m 832.54621,-80.7755 26.2945,-1.0246 -5.3957,-6.9833 c -2.9677,-3.8406 -6.2698,-9.3711 -7.3378,-12.2898 -2.2485,-6.145 -3.3319,-6.4233 -8.7163,-2.238 -6.6073,5.1361 -20.5495,9.4626 -30.4929,9.4626 -17.1365,0 -30.9071,-7.1935 -40.7179,-21.2702 l -5.8749,-8.4293 -8.2818,7.9541 c -4.5547,4.3747 -11.1399,9.6385 -14.6334,11.6971 -9.3089,5.4856 -26.2338,8.9824 -36.8383,7.611 -4.7951,-0.62 -16.2568,-0.9795 -25.4703,-0.7989 -13.3161,0.2612 -18.7238,-0.3277 -26.366,-2.8718 l -9.6138,-3.2004 -21.1892,3.0806 c -11.654,1.6942 -24.0424,3.1346 -27.5298,3.2007 -5.1566,0.098 -7.1467,1.0808 -10.6562,5.2636 l -4.3153,5.1433 11.9187,0.9956 c 6.555,0.5476 34.5336,1.731 62.1739,2.6298 27.6405,0.8988 53.4655,1.8353 57.3888,2.0812 15.3993,0.9647 100.7899,0.9558 125.6536,-0.012 z m -345.4758,-14.248 c -1.5,-2.3692 -2.8666,-4.5258 -3.037,-4.7925 -0.1705,-0.2665 -3.0506,0.9671 -6.4007,2.7414 -3.3499,1.7743 -7.528,3.326 -9.2845,3.4482 -4.2555,0.2962 7.8881,2.4067 15.4683,2.6883 l 5.981,0.2224 z m 58.4716,1.2066 c 7.8899,-2.919 20.2703,-11.4267 20.2703,-13.9291 0,-0.6258 -2.4672,-2.0194 -5.4828,-3.097 -11.9156,-4.2578 -22.2427,-21.0313 -26.2756,-42.6786 -4.3106,-23.1356 -0.9807,-70.6529 6.6658,-95.1168 2.2608,-7.2326 2.6349,-10.4651 1.384,-11.9545 -4.3852,-5.2213 -31.913,-8.1154 -39.4216,-4.1444 -1.8557,0.9815 -4.1181,3.1585 -5.0277,4.8379 -2.968,5.4799 -6.3148,33.1186 -7.3971,61.0886 -1.0531,27.2108 -1.091,27.4325 -5.4304,31.7205 -2.4034,2.3749 -5.1704,4.3182 -6.1489,4.3182 -3.3655,0 -9.3438,-7.4832 -11.4321,-14.3096 -3.2318,-10.565 -2.3847,-53.4862 1.3939,-70.6212 l 3.0119,-13.6575 -6.9295,-1.0269 c -3.8109,-0.5647 -12.6155,-0.7015 -19.5654,-0.3039 -14.0734,0.805 -20.2203,3.8756 -22.1683,11.0735 -4.2346,15.6468 -6.0066,68.1179 -2.9473,87.2791 5.1338,32.1545 19.5238,50.1262 40.1363,50.1262 5.7984,0 8.0366,-0.9711 13.5402,-5.8741 3.6263,-3.2309 9.2763,-10.9628 12.5554,-17.1819 l 5.9622,-11.3077 2.8512,13.9386 c 3.596,17.5792 12.3601,35.408 19.8386,40.3572 6.8921,4.5612 19.0445,4.7452 30.6169,0.4634 z m 365.7149,-6.4836 c 4.8626,-2.6834 9.9637,-5.8511 11.3363,-7.0395 1.3724,-1.1882 7.7923,-3.5143 14.2664,-5.169 12.077,-3.0866 30.0141,-10.4998 29.9834,-12.3918 -0.011,-0.583 -1.1193,-4.5844 -2.4661,-8.8921 -4.7687,-15.2495 -6.9652,-39.8239 -6.9968,-78.2803 -0.025,-30.8255 2.4305,-88.1735 3.8423,-89.7234 1.4412,-1.5824 50.2962,3.8782 130.0735,14.5388 47.4555,6.3414 97.1507,9.4275 112.6649,6.9966 27.2203,-4.265 42.8274,-18.8646 44.691,-41.8057 1.425,-17.5443 -8.3022,-39.1427 -22.4218,-49.7851 l -5.5467,-4.1807 -10.0054,10.0769 c -38.8153,39.0932 -106.066,53.8729 -208.1512,45.7452 -15.6933,-1.2494 -30.9436,-2.2867 -33.8894,-2.3053 l -5.3564,-0.033 1.1095,-14.013 c 0.9567,-12.0889 0.6789,-14.974 -2.0243,-21.0129 -3.2824,-7.3326 -6.907,-10.0923 -15.8834,-12.093 -5.4786,-1.2209 -20.0851,0.4671 -30.5792,3.534 l -5.7794,1.689 2.4232,5.6751 c 2.4259,5.6822 6.9691,31.4679 5.8588,33.253 -0.3246,0.5216 -11.4898,1.3458 -24.812,1.8317 -31.8917,1.1631 -45.0751,5.3715 -48.6598,15.5331 -1.9845,5.6259 1.2637,14.3735 8.4628,22.7899 l 4.3409,5.0748 5.0246,-3.7211 c 2.7634,-2.0466 7.878,-5.1254 11.3653,-6.8417 8.2011,-4.0366 31.3131,-9.7687 39.3872,-9.7687 h 6.2876 l -1.0136,35.6366 c -0.5575,19.6001 -2.0564,50.0871 -3.331,67.7487 -1.2745,17.6616 -2.8202,42.2848 -3.435,54.718 l -1.1179,22.6057 -3.8128,-4.5917 c -12.2091,-14.7033 -13.7972,-23.5999 -13.8765,-77.741 -0.052,-34.8633 -0.5312,-45.4113 -2.1388,-46.9934 -1.3606,-1.3393 -6.0212,-1.9767 -13.5688,-1.8558 l -11.4965,0.1842 -4.6603,-8.7779 c -6.5703,-12.3747 -12.9953,-16.3234 -25.2676,-15.5293 -12.6476,0.8185 -20.2324,4.6419 -31.8918,16.0759 -35.3567,34.6727 -43.6115,118.488 -13.7149,139.252 5.6314,3.9111 8.1005,4.6013 16.1915,4.526 16.5286,-0.1539 28.6585,-9.8135 41.8326,-33.313 l 6.586,-11.7483 1.2225,10.1819 c 3.5491,29.5601 8.9986,46.0067 17.2659,52.106 9.196,6.7847 22.8885,5.9978 37.6813,-2.1659 z m -89.94,-51.8444 c -4.8818,-4.8241 -0.5454,-38.6819 7.5551,-58.9903 3.7605,-9.4276 13.6149,-25.2599 15.7224,-25.2599 5.4897,0 6.7553,39.3636 1.7773,55.2898 -5.5239,17.6734 -19.7899,34.1632 -25.0548,28.9604 z m 143.3982,55.9332 c 7.9747,-2.1601 17.1706,-5.0304 20.4356,-6.3785 5.5486,-2.291 5.7633,-2.6221 3.2851,-5.0708 -2.4781,-2.4486 -3.3317,-2.2709 -13.076,2.7214 -5.7336,2.9377 -14.8066,6.9506 -20.162,8.9176 -12.9563,4.7588 -8.418,4.6683 9.5173,-0.1897 z m -617.70967,-2.7712 c 3.95277,-1.7007 10.42787,-5.3649 14.38912,-8.1426 3.96116,-2.7777 10.02445,-5.5652 13.47365,-6.1943 6.5523,-1.1949 29.168,-9.6305 31.2534,-11.6573 0.6624,-0.6436 0.1365,-4.6526 -1.1681,-8.9091 -5.4642,-17.826 -7.4553,-39.7496 -7.4251,-81.7599 0.017,-22.6191 0.5118,-44.9393 1.1013,-49.6004 l 1.0715,-8.4747 17.1605,-0.5259 c 14.4391,-0.4425 17.8695,-1.0477 21.6304,-3.8164 6.527,-4.805 6.976,-15.2478 1.1451,-26.6362 -6.7739,-13.23 -7.992,-13.8868 -19.0797,-10.289 -5.1145,1.6595 -11.3295,3.4874 -13.8113,4.0619 l -4.5123,1.0445 1.3419,-15.3407 c 1.962,-22.4282 1.39,-30.8575 -2.5176,-37.1056 -5.6365,-9.0124 -18.5622,-11.0824 -39.63119,-6.3469 l -10.8282,2.4338 2.89827,7.5376 c 3.80582,9.8978 6.53753,30.8688 5.93394,45.5532 l -0.48311,11.7483 -17.43682,1.8111 c -9.59032,0.9961 -18.25124,1.8771 -19.24652,1.9581 -3.17196,0.2577 -3.96311,7.8213 -1.38059,13.1992 3.89125,8.1034 9.54681,10.4446 25.23084,10.4446 h 13.62576 l 0.0421,5.0908 c 0.0231,2.8 -1.90993,36.7334 -4.29603,75.4074 l -4.3384,70.3164 -5.0154,-5.7335 c -9.42114,-10.7699 -10.83076,-19.5345 -11.7378,-72.981 l -0.81007,-47.7327 -3.96293,-2.0564 c -2.68128,-1.3912 -7.05372,-1.7569 -13.51974,-1.1309 l -9.5568,0.9251 -2.0762,-5.6738 c -4.86654,-13.2991 -16.54835,-20.7831 -29.66701,-19.0063 -24.1123,3.2659 -46.23806,29.456 -56.43295,66.799 -4.85575,17.7862 -5.30583,55.6807 -0.81247,68.4074 9.48385,26.8615 35.92858,33.1279 56.00749,13.2715 7.12325,-7.0443 21.18398,-28.0008 21.18398,-31.5733 0,-0.8502 0.7133,-1.5458 1.58515,-1.5458 0.87183,0 1.59056,2.9958 1.59714,6.6573 0.0356,19.7945 6.38743,42.9413 14.14552,51.5481 8.66117,9.6086 19.13409,10.813 34.92909,4.0174 z m -85.74049,-57.132 c -3.876,-9.8114 2.67945,-44.0446 12.27088,-64.0797 4.51362,-9.4283 11.32997,-18.1788 13.24817,-17.0072 2.69839,1.6478 5.21321,21.9372 4.34959,35.0919 -1.3342,20.3224 -10.46919,41.0196 -21.15964,47.9415 -5.14628,3.3321 -6.76682,2.97 -8.709,-1.9465 z m 182.39686,60.781 c -5.8162,-1.7441 -11.0449,-4.654 -16.9707,-9.4446 l -5.1745,-4.1831 -13.3609,6.3817 -13.3605,6.3816 12.9872,0.8831 c 20.3926,1.3864 40.5307,1.3759 35.8794,-0.019 z m -225.35245,-4.655 c 4.98821,-2.5156 11.32816,-6.248 14.08878,-8.2943 l 5.01924,-3.7205 -8.18958,-2.858 c -9.72586,-3.3942 -18.51408,-11.848 -21.39274,-20.5789 -3.63913,-11.0373 -3.98682,-30.622 -1.08335,-61.0225 3.4186,-35.7944 2.81552,-50.695 -2.47911,-61.2517 -10.45904,-20.8537 -39.50725,-19.6826 -63.48098,2.5592 -4.58058,4.2498 -8.51416,7.543 -8.7413,7.3186 -0.86154,-0.8514 1.51666,-29.1261 2.59483,-30.8499 0.62176,-0.9942 6.76137,-3.0533 13.64356,-4.5759 40.043,-8.8588 67.20139,-38.6195 67.20139,-73.6402 0,-18.6075 -6.35016,-30.9151 -20.83992,-40.3907 -5.25325,-3.4353 -8.62698,-4.2702 -19.54387,-4.8365 -11.52826,-0.5979 -14.15273,-0.2155 -20.78142,3.0284 -21.68555,10.6121 -39.01485,40.3585 -51.44101,88.3006 -3.73612,14.4146 -4.93833,17.1731 -7.35525,16.8771 -1.58903,-0.1947 -6.63411,-0.8205 -11.21128,-1.3904 -7.59387,-0.9461 -8.32214,-0.765 -8.32214,2.0691 0,4.4122 4.40488,7.7911 13.18183,10.1107 6.40748,1.6934 7.46959,2.5029 6.80352,5.1843 -4.22206,16.9977 -8.88515,76.0486 -8.84789,112.0454 0.0434,41.9011 3.19073,46.2687 33.24727,46.1373 9.15436,-0.041 18.56443,-0.572 20.91126,-1.1819 l 4.26697,-1.109 -2.953,-6.6504 c -6.47747,-14.5878 -11.12904,-49.2221 -11.12904,-82.8637 0,-19.9601 0.0653,-20.3324 4.23568,-24.1517 5.79397,-5.3062 10.91194,-6.282 17.25974,-3.2908 10.67801,5.0319 11.05853,7.1854 10.51827,59.5294 -0.52973,51.3266 0.31074,59.1212 7.59948,70.4787 6.24112,9.7249 13.75978,13.435 27.40544,13.5227 8.83216,0.057 12.35975,-0.745 19.81462,-4.5045 z M 765.5657,1144.6175 c 1.9189,-15.177 8.56539,-41.6654 12.68699,-50.5618 3.31104,-7.1468 4.5802,-8.5027 7.56537,-8.0824 7.82387,1.1017 11.61232,21.9288 6.90164,37.9418 -3.05453,10.3829 -12.23611,21.3267 -22.03892,26.2687 l -6.21501,3.1332 z m 149.60984,200.0624 c -0.74932,-3.8182 -3.16255,-3.982 -7.64577,-0.5192 l -3.96293,3.061 6.06061,0.034 c 4.81583,0.028 5.95536,-0.5016 5.54809,-2.5766 z m -213.32148,-0.5002 12.28505,-0.022 -6.34066,-6.2657 c -3.48738,-3.4461 -6.34068,-6.9935 -6.34068,-7.883 0,-1.8889 -18.74929,12.7074 -18.91228,14.7231 -0.0604,0.7466 1.49523,0.9324 3.45687,0.413 1.96163,-0.5194 9.09492,-0.9542 15.8517,-0.966 z m -55.64791,-6.2301 c 28.97572,-8.8472 54.54293,-35.5654 62.33988,-65.1463 7.13699,-27.0771 -2.77905,-44.8199 -26.98278,-48.2802 l -6.42055,-0.9178 -2.77296,8.8987 c -5.95447,19.109 -24.28394,40.5518 -41.39426,48.4252 -14.86668,6.8411 -32.10689,4.2026 -43.04209,-6.5873 -16.71893,-16.4967 -16.93106,-51.0214 -0.57107,-92.9432 l 4.83432,-12.3876 9.8495,-1.1024 c 40.03956,-4.4812 73.38113,-18.2357 94.73298,-39.0805 28.06393,-27.3976 25.84596,-61.4493 -5.00889,-76.8999 -22.44605,-11.2399 -55.28656,-10.9695 -81.26179,0.669 -30.29302,13.5733 -59.08272,47.2555 -73.14346,85.5737 -1.58071,4.3077 -3.3807,8.4143 -4.00004,9.1255 -3.38819,3.8916 -41.56575,-13.3586 -56.36585,-25.4681 -9.66459,-7.9077 -19.5328,-20.3296 -25.66863,-32.311 -3.80131,-7.4229 -8.24466,-23.4664 -8.27953,-29.8946 -0.0466,-8.6089 -1.61233,-8.5681 -17.0747,0.4442 -16.36906,9.5407 -31.49556,23.2494 -35.86326,32.5017 -4.27192,9.0493 -2.88879,20.6301 3.48714,29.1975 14.53103,19.5259 53.62611,35.2065 107.33372,43.0505 8.71842,1.2733 18.05114,2.3192 20.73936,2.3244 2.68812,0.01 5.25166,0.369 5.69666,0.8087 0.44506,0.4398 -0.26523,5.9028 -1.5783,12.1399 -1.59619,7.5816 -2.38997,20.4269 -2.39485,38.7532 -0.008,24.6928 0.40793,28.947 4.17763,42.8751 6.4325,23.766 13.82946,37.1185 28.80531,51.997 8.57033,8.5145 15.81748,14.1072 22.22754,17.1528 21.0441,9.9989 48.59297,12.8849 67.59897,7.0818 z M 603.17728,1151.697 c 0,-0.7452 1.54293,-3.3886 3.42881,-5.874 16.40784,-21.6246 36.32481,-32.144 46.94387,-24.794 7.30774,5.0581 3.57748,15.0077 -8.1791,21.8161 -11.3657,6.5821 -42.19358,13.0496 -42.19358,8.8519 z m 1085.04802,182.4773 c 20.8655,-4.4797 35.6664,-16.0458 35.6664,-27.8717 0,-5.33 -0.9597,-7.3123 -5.6608,-11.6938 -3.1136,-2.9017 -6.9785,-5.276 -8.5889,-5.276 -1.6101,0 -3.9644,-0.3929 -5.2311,-0.8734 -1.5319,-0.5808 -3.7106,1.4998 -6.5056,6.2129 -8.7844,14.812 -23.4045,20.4227 -34.25,13.144 -7.1876,-4.8238 -12.15,-13.871 -14.0261,-25.5717 -0.8255,-5.1476 -1.2892,-9.5819 -1.0308,-9.8539 0.2589,-0.272 3.5739,0.3599 7.3673,1.4041 3.7936,1.0443 12.247,1.8909 18.7859,1.8814 22.5809,-0.033 38.603,-10.0251 48.0444,-29.9622 8.9138,-18.8234 7.3401,-50.2907 -2.9952,-59.8854 -3.104,-2.8815 -4.8849,-3.2975 -10.7281,-2.5061 -4.9425,0.6694 -9.6168,0.043 -15.8685,-2.129 -22.4664,-7.803 -46.4314,0.1546 -66.516,22.0866 -16.1409,17.6257 -23.2192,36.2121 -23.2505,61.0522 -0.03,23.2709 4.8173,37.9295 17.0883,51.683 14.9834,16.7936 41.2463,23.8381 67.6993,18.159 z m -38.0122,-77.8892 c 3.321,-14.9695 15.2299,-31.0739 27.0919,-36.6364 6.827,-3.2014 8.4615,-2.0607 9.6556,6.7375 2.5103,18.4945 -9.1573,31.8616 -29.9335,34.2931 l -7.9964,0.936 z m -413.2819,72.8191 4.9354,-0.9754 -3.6768,-7.258 c -7.6538,-15.1087 -9.4774,-23.4405 -9.2515,-42.273 0.3614,-30.1273 6.0183,-56.0014 16.5496,-75.6947 5.5619,-10.4 18.6576,-23.9918 28.2474,-29.317 l 6.7462,-3.7461 -0.994,5.3125 c -4.6477,24.844 -9.8172,100.0766 -8.5995,125.1456 0.7969,16.4048 3.3476,23.2819 10.3074,27.7895 3.631,2.352 8.5649,2.7953 33.6517,3.0238 27.8489,0.2534 29.8365,0.072 37.7503,-3.4521 12.1718,-5.4199 22.9027,-17.1476 31.2533,-34.1556 11.785,-24.004 17.3672,-55.4631 13.5257,-76.2272 -5.2128,-28.1758 -18.8859,-40.1657 -41.3462,-36.2561 -12.5098,2.1776 -21.2532,6.9351 -31.1446,16.947 l -8.3823,8.4841 0.1568,-9.8603 c 0.087,-5.4233 0.6211,-13.7299 1.1889,-18.4594 0.8402,-7.0006 1.6215,-8.6785 4.2023,-9.0259 38.2616,-5.1489 68.4018,-28.9191 76.1171,-60.0302 6.2,-25.0008 -2.5685,-47.9754 -21.9638,-57.5475 -10.5239,-5.1938 -27.9936,-5.0848 -38.5182,0.2402 -17.4499,8.829 -32.2027,30.1185 -43.3308,62.5303 l -4.3395,12.6393 -7.7597,0.2755 c -4.2681,0.1516 -9.9371,1.3913 -12.5978,2.755 -13.3258,6.8298 -27.2029,29.8329 -34.7017,57.5233 -2.1633,7.9886 -4.1388,14.727 -4.3894,14.9745 -0.2506,0.2473 -0.5057,-6.0115 -0.5665,-13.9086 -0.088,-11.2832 -0.8717,-16.0719 -3.6645,-22.3589 -11.3414,-25.5307 -43.3695,-32.0146 -65.534,-13.2668 -6.4519,5.4574 -12.2246,15.4424 -12.2955,21.2672 -0.035,2.8651 0.833,3.0885 10.1513,2.6129 18.3073,-0.9346 26.5299,6.1242 29.7917,25.5758 1.7768,10.5957 1.3623,17.2414 -4.44,71.221 -5.1236,47.6669 1.9762,59.2264 35.1549,57.2392 7.057,-0.4227 15.0519,-1.2074 17.7663,-1.7439 z m 82.082,-22.932 c -0.581,-2.8 -1.7481,-16.8643 -2.5934,-31.254 -1.6639,-28.3291 -1.0995,-31.8001 7.3546,-45.2401 3.6138,-5.745 12.4482,-13.9681 15.0063,-13.9681 0.785,0 2.6917,1.9089 4.2376,4.2419 2.3653,3.5697 2.8103,7.8516 2.8092,27.0212 0,24.3819 -1.702,34.3628 -8.206,48.1617 -3.8109,8.0848 -11.5379,16.1282 -15.4937,16.1282 -1.1318,0 -2.5333,-2.2908 -3.1146,-5.0908 z m 2.2478,-155.8757 c 0.011,-12.4542 8.2203,-47.2374 13.2457,-56.0906 4.6901,-8.2621 10.168,-8.5471 13.0419,-0.6785 2.4328,6.6619 2.7986,23.8085 0.669,31.383 -2.7027,9.614 -10.2391,19.5131 -18.8343,24.7394 l -8.1245,4.9399 v -4.2932 z M 623.10657,1261.082 c 14.76755,-7.0644 29.35611,-27.6447 31.60722,-44.5888 1.96212,-14.7689 0.42777,-13.7942 20.36048,-12.9326 9.71577,0.4199 18.84894,1.2617 20.29592,1.8704 3.12171,1.3135 3.86092,-0.6548 5.25842,-14.0009 0.96746,-9.2389 0.90266,-9.4436 -3.81577,-12.0483 -4.03253,-2.2261 -10.01211,-9.5623 -11.61881,-14.255 -0.23356,-0.682 -4.33802,0.903 -9.12104,3.5228 -11.56008,6.3311 -35.29969,13.8799 -53.87371,17.1306 l -15.05907,2.6357 -4.59607,13.2554 c -6.05277,17.457 -7.59569,44.5076 -3.03309,53.178 4.99104,9.4845 12.59764,11.4939 23.59552,6.2327 z M 1628.467,1171.7359 c 0.5638,-1.3609 -17.4417,-2.8326 -18.9375,-1.5478 -0.5625,0.483 -1.306,5.5802 -1.6523,11.3271 l -0.6296,10.4488 10.3708,-9.5373 c 5.7038,-5.2456 10.5857,-10.0564 10.8486,-10.6908 z m -101.1361,4.0298 c 0,-4.4546 -0.6474,-4.6222 -8.0298,-2.0791 l -5.3323,1.8369 5.492,1.9599 c 7.6464,2.7288 7.8701,2.6801 7.8701,-1.7177 z"
         id="path18070" />
    </g>
  </g>
  <metadata
     id="metadata7980">
    <rdf:RDF>
      <cc:Work
         rdf:about="">
        <dc:title>Cahturbate logo</dc:title>
        <dc:date>8 sep 2021</dc:date>
        <cc:license
           rdf:resource="http://scripts.sil.org/OFL" />
        <dc:rights>
          <cc:Agent>
            <dc:title>N/A</dc:title>
          </cc:Agent>
        </dc:rights>
      </cc:Work>
      <cc:License
         rdf:about="http://scripts.sil.org/OFL">
        <cc:permits
           rdf:resource="http://scripts.sil.org/pub/OFL/Reproduction" />
        <cc:permits
           rdf:resource="http://scripts.sil.org/pub/OFL/Distribution" />
        <cc:permits
           rdf:resource="http://scripts.sil.org/pub/OFL/Embedding" />
        <cc:permits
           rdf:resource="http://scripts.sil.org/pub/OFL/DerivativeWorks" />
        <cc:requires
           rdf:resource="http://scripts.sil.org/pub/OFL/Notice" />
        <cc:requires
           rdf:resource="http://scripts.sil.org/pub/OFL/Attribution" />
        <cc:requires
           rdf:resource="http://scripts.sil.org/pub/OFL/ShareAlike" />
        <cc:requires
           rdf:resource="http://scripts.sil.org/pub/OFL/DerivativeRenaming" />
        <cc:requires
           rdf:resource="http://scripts.sil.org/pub/OFL/BundlingWhenSelling" />
      </cc:License>
    </rdf:RDF>
  </metadata>
</svg>
