<?xml version="1.0" encoding="UTF-8" standalone="yes"?>
<svg xmlns="http://www.w3.org/2000/svg" xmlns:xlink="http://www.w3.org/1999/xlink" width="436.177pt" height="326.785pt" version="1.1" viewBox="-398.488 575.863 436.177 326.785">
  <!--
	Exported with Concepts: Smarter Sketching
	Version: 3759 on iOS 16.0
	https://concepts.app/
	-->
  <title>6E01FB39-B693-4229-9B23-894044F6035D</title>
  <desc>Drawing exported from Concepts: Smarter Sketching</desc>
  <defs></defs>
  <g id="Wire" opacity="1.000">
    <path id="STROKE_f26165fb-6e2f-42d2-ad8e-61bc6630e8b9" opacity="1.000" fill="none" stroke="#000000" stroke-width="1.247" stroke-opacity="1.000" stroke-linecap="round" stroke-linejoin="round" d="M -390.451 710.899 Q -390.695 711.134 -390.432 710.938 Q -390.169 710.742 -390.752 711.533 Q -391.335 712.324 -392.783 712.070 Q -393.118 711.494 -393.088 702.861 Q -393.058 694.227 -392.929 689.679 Q -392.800 685.130 -392.646 682.908 Q -392.492 680.687 -391.233 675.934 Q -389.973 671.182 -388.590 667.651 Q -387.208 664.121 -384.788 660.659 Q -382.369 657.198 -380.369 655.224 Q -378.369 653.250 -376.189 651.529 Q -374.009 649.809 -370.592 649.226 Q -367.176 648.643 -365.329 648.746 Q -363.482 648.850 -361.899 651.880 Q -360.316 654.910 -359.591 657.666 Q -358.866 660.421 -358.370 666.553 Q -357.873 672.684 -357.831 676.516 Q -357.790 680.348 -357.731 684.332 Q -357.673 688.316 -357.687 698.042 Q -357.701 707.768 -360.536 732.928 Q -360.387 732.091 -358.027 720.151 Q -355.667 708.212 -354.314 701.174 Q -352.961 694.136 -351.367 687.367 Q -349.773 680.599 -347.717 673.808 Q -345.662 667.018 -343.429 662.354 Q -341.197 657.690 -339.382 654.686 Q -337.567 651.682 -333.215 647.332 Q -328.863 642.983 -324.676 639.785 Q -320.488 636.587 -318.036 635.216 Q -315.583 633.846 -313.583 633.454 Q -311.583 633.062 -309.375 632.879 Q -307.167 632.696 -305.327 633.938 Q -303.486 635.180 -301.756 641.806 Q -300.025 648.432 -298.972 656.874 Q -297.919 665.316 -297.357 674.160 Q -296.796 683.005 -296.692 689.794 Q -296.587 696.583 -296.749 702.078 Q -296.911 707.572 -295.840 712.070 Q -295.805 712.018 -294.267 712.282 Q -292.730 712.546 -291.379 709.116 Q -290.029 705.686 -288.920 700.464 Q -287.810 695.242 -286.328 688.085 Q -284.845 680.929 -283.633 676.157 Q -282.421 671.385 -279.735 665.819 Q -277.049 660.253 -274.608 656.625 Q -272.166 652.997 -271.134 651.724 Q -270.103 650.450 -266.692 646.956 Q -263.282 643.461 -260.536 640.899 Q -257.791 638.338 -255.410 637.049 Q -253.029 635.760 -250.952 635.239 Q -248.874 634.718 -247.669 635.609 Q -246.464 636.500 -245.069 642.329 Q -243.674 648.158 -243.294 653.486 Q -242.915 658.813 -241.666 667.805 Q -240.417 676.797 -239.258 682.260 Q -238.099 687.724 -237.020 691.231 Q -235.941 694.739 -234.276 697.147 Q -232.611 699.555 -230.581 700.963 Q -228.552 702.370 -227.137 703.442 Q -225.722 704.513 -222.842 705.002 Q -219.962 705.491 -217.834 705.633 Q -215.705 705.775 -213.869 705.047 Q -212.032 704.318 -209.489 701.986 Q -206.945 699.655 -204.529 695.997 Q -202.114 692.340 -199.798 686.901 Q -197.482 681.462 -198.487 657.731 Q -198.687 657.731 -198.988 657.731 Q -198.720 657.661 -199.154 660.855 Q -199.588 664.050 -197.256 670.197 Q -194.923 676.345 -193.340 679.919 Q -191.757 683.493 -190.687 686.027 Q -189.618 688.560 -188.417 690.850 Q -187.216 693.140 -184.956 693.764 Q -182.696 694.387 -180.523 693.942 Q -178.350 693.496 -174.269 687.999 Q -170.189 682.503 -168.010 679.134 Q -165.831 675.765 -162.553 668.195 Q -159.274 660.625 -156.246 650.128 Q -153.218 639.631 -151.315 629.388 Q -149.413 619.145 -148.817 613.329 Q -148.222 607.512 -147.845 598.936 Q -147.468 590.360 -148.448 581.261 Q -148.491 582.067 -148.272 592.484 Q -148.054 602.901 -147.793 616.214 Q -147.532 629.528 -146.932 639.247 Q -146.331 648.966 -145.415 656.133 Q -144.498 663.299 -143.632 667.469 Q -142.766 671.638 -141.814 674.332 Q -140.862 677.026 -139.536 678.812 Q -138.209 680.597 -136.920 681.953 Q -135.632 683.309 -133.234 684.266 Q -130.837 685.222 -127.874 685.375 Q -124.911 685.527 -122.891 685.342 Q -120.870 685.157 -118.159 683.328 Q -115.447 681.499 -112.122 677.710 Q -108.797 673.922 -105.826 668.979 Q -102.856 664.035 -100.785 657.568 Q -98.714 651.101 -97.754 647.590 Q -96.794 644.079 -96.255 639.225 Q -95.715 634.370 -95.768 629.976 Q -95.902 629.976 -96.688 629.976 Q -95.552 631.154 -89.401 633.157 Q -89.401 633.734 -89.401 630.828 Q -89.300 630.828 -89.200 630.828 Q -89.200 629.954 -89.200 629.976 Q -88.900 629.874 -88.599 629.772 "></path>
    <path id="STROKE_2aaf4f2b-8f78-4e56-b0b2-23d7d13ebba6" opacity="1.000" fill="none" stroke="#000000" stroke-width="1.247" stroke-opacity="1.000" stroke-linecap="round" stroke-linejoin="round" d="M -179.384 767.466 Q -179.067 766.676 -179.352 764.494 Q -179.637 762.313 -177.412 758.846 Q -175.186 755.379 -171.367 751.849 Q -167.549 748.320 -162.594 745.488 Q -157.640 742.656 -153.480 740.938 Q -149.319 739.220 -144.203 739.182 Q -143.575 739.986 -144.857 744.090 Q -146.139 748.195 -147.182 750.261 Q -148.224 752.328 -149.148 754.077 Q -150.072 755.826 -154.323 763.916 Q -158.574 772.005 -160.882 776.567 Q -163.190 781.129 -165.296 785.698 Q -167.401 790.267 -168.417 794.225 Q -169.433 798.183 -169.730 800.813 Q -170.027 803.444 -169.658 804.935 Q -169.288 806.427 -168.465 807.155 Q -167.641 807.884 -166.675 808.240 Q -165.709 808.596 -164.826 809.171 Q -163.943 809.747 -159.235 810.286 Q -154.528 810.824 -150.684 810.679 Q -146.840 810.533 -143.206 809.551 Q -139.572 808.568 -132.716 805.327 Q -125.860 802.085 -122.289 800.293 Q -118.718 798.500 -112.085 795.318 Q -105.451 792.136 -102.015 790.445 Q -98.579 788.754 -94.058 786.563 Q -89.537 784.373 -85.164 781.997 Q -80.791 779.620 -75.356 776.951 Q -69.921 774.281 -64.131 773.179 Q -63.834 773.559 -69.818 779.969 Q -75.802 786.380 -79.850 791.796 Q -83.898 797.211 -88.052 804.333 Q -92.206 811.455 -94.248 815.513 Q -96.290 819.571 -98.375 824.245 Q -100.460 828.920 -101.701 833.143 Q -102.942 837.367 -102.896 840.402 Q -102.850 843.436 -102.812 845.523 Q -102.774 847.610 -99.478 849.729 Q -96.182 851.847 -89.660 852.440 Q -83.137 853.032 -77.969 852.699 Q -72.802 852.366 -70.065 852.005 Q -67.328 851.644 -62.283 850.097 Q -57.238 848.549 -53.505 847.303 Q -49.772 846.056 -40.429 841.755 Q -31.085 837.454 -19.243 831.176 Q -7.400 824.898 -1.673 821.827 Q 4.053 818.756 10.593 814.869 Q 17.132 810.982 20.396 808.991 Q 23.660 807.000 25.778 806.148 Q 27.896 805.296 31.801 805.274 Q 31.846 804.706 32.214 810.635 Q 32.581 816.564 31.428 823.974 Q 30.275 831.385 29.326 835.544 Q 28.376 839.702 26.599 847.524 Q 24.821 855.347 23.363 863.340 Q 21.905 871.333 21.556 877.486 Q 21.208 883.640 21.031 887.478 Q 20.854 891.316 24.213 897.320 "></path>
  </g>
</svg>