<svg xmlns="http://www.w3.org/2000/svg" id="canvas" viewBox="127.855 353.735 746.537 88.621"><path d="M 130.94,398.70 C 130.75 400.14, 130.88 402.38, 131.33 405.73 C 131.78 409.09, 132.36 411.45, 133.19 415.48 C 134.03 419.51, 134.61 422.25, 135.50 425.88 C 136.40 429.51, 136.81 431.20, 137.68 433.63 C 138.55 436.05, 139.03 436.87, 139.86 438.01 C 140.69 439.15, 141.05 439.43, 141.84 439.34 C 142.64 439.24, 143.09 438.83, 143.82 437.53 C 144.55 436.24, 144.84 435.12, 145.49 432.86 C 146.14 430.59, 146.30 428.98, 147.08 426.20 C 147.85 423.42, 148.27 421.65, 149.35 418.96 C 150.44 416.27, 151.14 414.84, 152.50 412.76 C 153.87 410.68, 154.63 409.77, 156.17 408.56 C 157.72 407.34, 158.56 406.97, 160.22 406.67 C 161.89 406.38, 162.73 406.48, 164.49 407.08 C 166.25 407.69, 167.17 408.30, 169.00 409.71 C 170.83 411.12, 171.79 412.15, 173.62 414.13 C 175.44 416.11, 176.41 417.35, 178.13 419.61 C 179.86 421.88, 180.63 423.30, 182.25 425.46 C 183.87 427.62, 184.63 428.73, 186.22 430.43 C 187.81 432.12, 188.56 432.90, 190.20 433.94 C 191.85 434.97, 192.71 435.36, 194.45 435.59 C 196.18 435.82, 197.13 435.72, 198.88 435.07 C 200.64 434.43, 201.57 433.82, 203.22 432.37 C 204.86 430.92, 205.73 429.88, 207.13 427.84 C 208.52 425.80, 209.23 424.45, 210.20 422.16 C 211.18 419.88, 211.58 418.51, 212.00 416.41 C 212.43 414.31, 212.53 413.20, 212.32 411.66 C 212.12 410.11, 211.78 409.37, 210.99 408.67 C 210.19 407.98, 209.43 407.81, 208.34 408.20 C 207.26 408.58, 206.45 409.18, 205.55 410.61 C 204.65 412.05, 204.18 413.25, 203.83 415.37 C 203.49 417.50, 203.45 418.91, 203.82 421.22 C 204.19 423.54, 204.58 424.87, 205.68 426.94 C 206.78 429.02, 207.61 430.06, 209.32 431.61 C 211.03 433.16, 212.13 433.84, 214.25 434.69 C 216.36 435.54, 217.65 435.79, 219.90 435.85 C 222.15 435.91, 223.45 435.73, 225.50 434.99 C 227.56 434.24, 228.62 433.62, 230.18 432.14 C 231.73 430.65, 232.48 429.62, 233.26 427.56 C 234.05 425.50, 234.30 424.16, 234.10 421.82 C 233.90 419.49, 233.50 418.10, 232.26 415.90 C 231.03 413.71, 230.01 412.52, 227.90 410.84 C 225.79 409.16, 224.31 408.40, 221.72 407.50 C 219.13 406.60, 217.50 406.38, 214.95 406.34 C 212.40 406.31, 210.88 406.64, 208.97 407.34 C 207.06 408.04, 206.38 408.83, 205.40 409.83 C 204.43 410.83, 204.28 411.52, 204.08 412.34 C 203.88 413.17, 204.19 413.64, 204.41 413.96 C 204.64 414.29, 204.98 414.18, 205.22 413.98 C 205.45 413.78, 205.25 413.46, 205.60 412.99 C 205.95 412.51, 206.12 412.22, 206.97 411.63 C 207.81 411.04, 208.26 410.47, 209.84 410.05 C 211.42 409.62, 212.69 409.42, 214.85 409.52 C 217.02 409.62, 218.45 409.79, 220.67 410.56 C 222.88 411.32, 224.15 411.97, 225.93 413.35 C 227.71 414.73, 228.55 415.69, 229.58 417.45 C 230.62 419.20, 230.92 420.29, 231.11 422.11 C 231.30 423.92, 231.12 424.95, 230.54 426.54 C 229.95 428.13, 229.40 428.92, 228.20 430.05 C 226.99 431.18, 226.17 431.65, 224.52 432.20 C 222.88 432.76, 221.82 432.89, 219.99 432.83 C 218.15 432.78, 217.08 432.60, 215.35 431.92 C 213.63 431.23, 212.72 430.68, 211.34 429.40 C 209.97 428.13, 209.30 427.26, 208.48 425.53 C 207.66 423.81, 207.42 422.69, 207.23 420.78 C 207.05 418.86, 207.29 417.71, 207.55 415.96 C 207.82 414.21, 208.19 413.27, 208.55 412.04 C 208.92 410.81, 209.13 410.27, 209.38 409.79 C 209.63 409.31, 209.73 409.26, 209.80 409.64 C 209.87 410.02, 209.92 410.48, 209.75 411.69 C 209.58 412.89, 209.48 413.84, 208.95 415.66 C 208.41 417.48, 208.01 418.73, 207.08 420.78 C 206.14 422.83, 205.47 424.06, 204.25 425.92 C 203.04 427.77, 202.30 428.72, 201.02 430.05 C 199.73 431.38, 199.08 431.94, 197.82 432.57 C 196.57 433.20, 195.99 433.33, 194.75 433.18 C 193.52 433.03, 192.92 432.73, 191.64 431.80 C 190.36 430.87, 189.74 430.16, 188.37 428.52 C 187.00 426.88, 186.34 425.77, 184.81 423.60 C 183.28 421.43, 182.46 420.02, 180.72 417.67 C 178.97 415.32, 178.04 413.95, 176.07 411.85 C 174.10 409.74, 173.02 408.64, 170.86 407.15 C 168.71 405.66, 167.52 405.01, 165.30 404.41 C 163.08 403.82, 161.91 403.77, 159.77 404.16 C 157.62 404.56, 156.54 405.03, 154.58 406.41 C 152.63 407.78, 151.64 408.77, 150.00 411.02 C 148.36 413.28, 147.67 414.85, 146.37 417.67 C 145.08 420.49, 144.46 422.27, 143.53 425.13 C 142.60 427.98, 142.16 429.63, 141.72 431.97 C 141.28 434.31, 141.35 435.51, 141.35 436.84 C 141.34 438.18, 141.66 438.58, 141.69 438.65 C 141.72 438.73, 141.77 438.40, 141.50 437.23 C 141.22 436.05, 141.00 435.18, 140.32 432.78 C 139.64 430.38, 139.02 428.79, 138.09 425.22 C 137.15 421.66, 136.52 418.94, 135.66 414.96 C 134.80 410.97, 134.46 408.61, 133.78 405.32 C 133.10 402.03, 132.84 399.84, 132.27 398.52 C 131.70 397.19, 131.13 397.26, 130.94 398.70" style="stroke: black; fill: black;"/><path d="M 241.65,403.35 C 241.40 403.94, 241.34 404.59, 241.58 405.98 C 241.83 407.36, 242.08 408.32, 242.87 410.27 C 243.66 412.21, 244.25 413.57, 245.51 415.69 C 246.78 417.82, 247.63 419.06, 249.19 420.90 C 250.75 422.74, 251.65 423.66, 253.30 424.91 C 254.95 426.16, 255.82 426.64, 257.43 427.15 C 259.04 427.65, 259.86 427.70, 261.34 427.43 C 262.82 427.16, 263.56 426.77, 264.82 425.80 C 266.08 424.82, 266.67 423.99, 267.62 422.54 C 268.57 421.08, 269.00 420.01, 269.58 418.52 C 270.16 417.02, 270.27 416.06, 270.53 415.06 C 270.79 414.06, 270.61 413.63, 270.86 413.51 C 271.12 413.39, 271.10 413.70, 271.79 414.45 C 272.48 415.20, 272.95 416.02, 274.32 417.27 C 275.69 418.53, 276.68 419.43, 278.64 420.73 C 280.61 422.02, 281.87 422.76, 284.16 423.74 C 286.44 424.72, 287.77 425.20, 290.08 425.64 C 292.39 426.08, 293.62 426.18, 295.73 425.92 C 297.84 425.65, 298.91 425.34, 300.62 424.31 C 302.34 423.29, 303.19 422.50, 304.32 420.79 C 305.44 419.07, 305.87 417.89, 306.26 415.72 C 306.65 413.55, 306.61 412.19, 306.27 409.93 C 305.93 407.68, 305.48 406.42, 304.57 404.44 C 303.66 402.46, 302.92 401.47, 301.71 400.04 C 300.50 398.61, 299.66 398.05, 298.53 397.30 C 297.39 396.54, 296.82 396.47, 296.05 396.26 C 295.29 396.05, 295.04 396.12, 294.72 396.25 C 294.40 396.37, 294.35 396.57, 294.43 396.88 C 294.52 397.19, 294.69 397.29, 295.16 397.80 C 295.64 398.31, 295.97 398.60, 296.81 399.43 C 297.65 400.26, 298.38 400.69, 299.36 401.95 C 300.33 403.21, 300.93 404.05, 301.67 405.75 C 302.41 407.44, 302.76 408.53, 303.07 410.43 C 303.37 412.32, 303.42 413.46, 303.18 415.23 C 302.95 417.00, 302.69 417.93, 301.90 419.28 C 301.12 420.64, 300.54 421.24, 299.25 422.01 C 297.96 422.78, 297.15 423.01, 295.45 423.13 C 293.75 423.25, 292.71 423.11, 290.74 422.61 C 288.77 422.11, 287.60 421.63, 285.60 420.63 C 283.59 419.63, 282.53 418.85, 280.74 417.61 C 278.94 416.38, 278.13 415.50, 276.62 414.43 C 275.11 413.36, 274.44 412.76, 273.19 412.27 C 271.93 411.78, 271.37 411.68, 270.36 411.99 C 269.34 412.29, 268.90 412.75, 268.09 413.77 C 267.28 414.80, 267.00 415.69, 266.32 417.11 C 265.64 418.52, 265.37 419.51, 264.70 420.83 C 264.03 422.16, 263.71 422.88, 262.95 423.74 C 262.19 424.59, 261.81 424.91, 260.88 425.12 C 259.95 425.33, 259.43 425.27, 258.29 424.78 C 257.14 424.29, 256.46 423.85, 255.17 422.66 C 253.89 421.47, 253.13 420.59, 251.85 418.82 C 250.58 417.04, 249.92 415.82, 248.79 413.80 C 247.67 411.78, 247.14 410.47, 246.21 408.72 C 245.28 406.96, 244.83 406.17, 244.15 405.03 C 243.47 403.90, 243.31 403.37, 242.81 403.03 C 242.31 402.70, 241.89 402.76, 241.65 403.35" style="stroke: black; fill: black;"/><path d="M 399.93,404.98 C 399.95 404.36, 399.82 403.65, 399.05 402.65 C 398.28 401.66, 397.70 400.88, 396.09 400.00 C 394.47 399.12, 393.31 398.50, 390.98 398.26 C 388.65 398.01, 387.14 398.08, 384.43 398.78 C 381.73 399.49, 380.10 400.20, 377.46 401.77 C 374.81 403.33, 373.29 404.42, 371.20 406.61 C 369.12 408.80, 368.09 410.24, 367.05 412.69 C 366.00 415.15, 365.75 416.62, 365.97 418.90 C 366.19 421.18, 366.73 422.40, 368.15 424.09 C 369.56 425.78, 370.76 426.58, 373.06 427.35 C 375.37 428.12, 376.96 428.32, 379.68 427.94 C 382.40 427.57, 384.01 427.06, 386.68 425.49 C 389.35 423.91, 390.73 422.74, 393.03 420.07 C 395.34 417.40, 396.48 415.70, 398.20 412.14 C 399.92 408.58, 400.64 406.45, 401.64 402.29 C 402.65 398.12, 402.95 395.71, 403.22 391.31 C 403.50 386.91, 403.38 384.47, 403.01 380.29 C 402.65 376.11, 402.18 373.95, 401.40 370.42 C 400.62 366.90, 400.13 365.17, 399.09 362.67 C 398.06 360.18, 397.34 359.10, 396.22 357.95 C 395.10 356.80, 394.29 356.49, 393.49 356.92 C 392.69 357.35, 392.17 358.10, 392.23 360.12 C 392.28 362.15, 392.70 363.71, 393.75 367.03 C 394.81 370.36, 395.77 372.53, 397.50 376.74 C 399.22 380.95, 400.31 383.55, 402.38 388.09 C 404.45 392.63, 405.67 395.15, 407.86 399.44 C 410.05 403.73, 411.21 405.87, 413.32 409.53 C 415.43 413.20, 416.45 414.94, 418.40 417.77 C 420.36 420.61, 421.31 421.88, 423.08 423.70 C 424.86 425.51, 425.85 426.01, 427.28 426.83 C 428.72 427.66, 429.32 427.70, 430.25 427.82 C 431.17 427.94, 431.57 427.64, 431.90 427.41 C 432.23 427.19, 432.13 426.92, 431.88 426.70 C 431.64 426.49, 431.35 426.70, 430.68 426.35 C 430.01 426.00, 429.68 425.84, 428.54 424.95 C 427.39 424.06, 426.59 423.59, 424.94 421.89 C 423.29 420.18, 422.28 419.10, 420.30 416.42 C 418.32 413.75, 417.20 412.08, 415.05 408.51 C 412.91 404.94, 411.73 402.82, 409.56 398.57 C 407.39 394.33, 406.17 391.81, 404.21 387.27 C 402.24 382.74, 401.23 380.12, 399.73 375.89 C 398.24 371.65, 397.71 369.35, 396.73 366.11 C 395.75 362.87, 395.41 361.42, 394.85 359.69 C 394.28 357.97, 393.97 357.61, 393.92 357.49 C 393.86 357.37, 394.06 357.84, 394.58 359.08 C 395.10 360.32, 395.61 361.32, 396.51 363.70 C 397.41 366.08, 398.20 367.63, 399.08 370.98 C 399.95 374.34, 400.46 376.45, 400.87 380.49 C 401.28 384.53, 401.40 386.93, 401.13 391.18 C 400.86 395.44, 400.53 397.78, 399.52 401.76 C 398.51 405.74, 397.76 407.77, 396.07 411.08 C 394.37 414.39, 393.22 415.94, 391.04 418.29 C 388.86 420.64, 387.52 421.52, 385.16 422.83 C 382.80 424.15, 381.48 424.50, 379.23 424.85 C 376.98 425.19, 375.74 425.06, 373.91 424.57 C 372.08 424.09, 371.15 423.58, 370.07 422.41 C 368.99 421.24, 368.59 420.41, 368.51 418.72 C 368.44 417.02, 368.70 415.89, 369.70 413.92 C 370.70 411.95, 371.63 410.73, 373.51 408.88 C 375.40 407.02, 376.78 405.99, 379.13 404.64 C 381.49 403.28, 382.99 402.69, 385.29 402.10 C 387.60 401.50, 388.78 401.47, 390.64 401.65 C 392.49 401.83, 393.26 402.40, 394.57 403.00 C 395.88 403.60, 396.31 404.09, 397.18 404.64 C 398.05 405.19, 398.38 405.68, 398.93 405.74 C 399.47 405.81, 399.90 405.59, 399.93 404.98" style="stroke: black; fill: black;"/><path d="M 456.53,404.46 C 456.31 403.88, 455.90 403.22, 454.78 402.64 C 453.66 402.06, 452.78 401.61, 450.93 401.56 C 449.08 401.51, 447.71 401.54, 445.53 402.39 C 443.35 403.23, 441.97 404.06, 440.04 405.78 C 438.11 407.51, 437.02 408.76, 435.89 411.03 C 434.77 413.30, 434.31 414.73, 434.42 417.13 C 434.52 419.52, 434.96 420.92, 436.44 423.01 C 437.91 425.09, 439.17 426.17, 441.79 427.54 C 444.41 428.90, 446.26 429.34, 449.53 429.84 C 452.81 430.34, 454.81 430.38, 458.17 430.04 C 461.53 429.70, 463.42 429.31, 466.34 428.13 C 469.26 426.94, 470.74 426.02, 472.77 424.13 C 474.81 422.24, 475.65 420.97, 476.49 418.69 C 477.34 416.41, 477.44 415.00, 477.01 412.72 C 476.57 410.44, 475.91 409.14, 474.32 407.29 C 472.73 405.43, 471.40 404.55, 469.05 403.45 C 466.70 402.35, 465.06 401.97, 462.57 401.79 C 460.09 401.62, 458.53 402.04, 456.61 402.57 C 454.69 403.10, 453.64 403.85, 452.97 404.44 C 452.31 405.04, 452.48 405.38, 453.30 405.53 C 454.11 405.68, 455.26 405.29, 457.05 405.20 C 458.85 405.12, 460.14 404.85, 462.28 405.08 C 464.42 405.32, 465.77 405.54, 467.74 406.37 C 469.72 407.21, 470.82 407.87, 472.16 409.25 C 473.50 410.62, 474.05 411.55, 474.43 413.25 C 474.81 414.95, 474.76 415.99, 474.05 417.75 C 473.34 419.51, 472.64 420.50, 470.88 422.04 C 469.12 423.57, 467.86 424.41, 465.26 425.44 C 462.66 426.47, 460.94 426.90, 457.89 427.19 C 454.84 427.47, 452.94 427.36, 450.01 426.87 C 447.07 426.38, 445.48 425.82, 443.22 424.72 C 440.95 423.61, 439.88 422.88, 438.67 421.35 C 437.45 419.81, 437.14 418.82, 437.14 417.05 C 437.13 415.29, 437.61 414.24, 438.65 412.52 C 439.68 410.80, 440.69 409.79, 442.33 408.43 C 443.97 407.07, 445.11 406.42, 446.84 405.72 C 448.58 405.02, 449.57 405.04, 450.99 404.94 C 452.41 404.83, 452.95 405.06, 453.93 405.19 C 454.91 405.31, 455.36 405.70, 455.88 405.55 C 456.40 405.41, 456.75 405.04, 456.53 404.46" style="stroke: black; fill: black;"/><path d="M 542.60,398.53 C 542.39 399.09, 542.35 399.56, 542.61 400.98 C 542.88 402.39, 543.09 403.47, 543.94 405.62 C 544.79 407.76, 545.46 409.27, 546.86 411.71 C 548.27 414.14, 549.22 415.65, 550.96 417.78 C 552.71 419.92, 553.73 420.98, 555.60 422.37 C 557.46 423.76, 558.45 424.25, 560.27 424.74 C 562.09 425.22, 563.02 425.21, 564.70 424.79 C 566.38 424.36, 567.21 423.85, 568.66 422.63 C 570.11 421.41, 570.82 420.43, 571.96 418.68 C 573.10 416.93, 573.66 415.68, 574.36 413.86 C 575.07 412.05, 575.18 410.81, 575.48 409.61 C 575.79 408.41, 575.59 407.90, 575.90 407.85 C 576.21 407.80, 576.28 408.33, 577.05 409.37 C 577.82 410.40, 578.31 411.40, 579.77 413.02 C 581.23 414.64, 582.29 415.79, 584.35 417.45 C 586.40 419.11, 587.71 420.05, 590.05 421.30 C 592.38 422.55, 593.70 423.10, 596.02 423.70 C 598.34 424.31, 599.54 424.48, 601.66 424.34 C 603.78 424.19, 604.87 423.95, 606.62 422.97 C 608.38 422.00, 609.21 421.22, 610.42 419.48 C 611.62 417.73, 612.10 416.51, 612.65 414.24 C 613.20 411.97, 613.28 410.53, 613.17 408.12 C 613.07 405.70, 612.79 404.29, 612.12 402.16 C 611.45 400.03, 610.84 398.91, 609.82 397.47 C 608.81 396.02, 607.79 395.30, 607.05 394.93 C 606.32 394.56, 606.03 394.86, 606.14 395.61 C 606.24 396.37, 606.99 397.21, 607.56 398.70 C 608.14 400.18, 608.57 401.11, 609.03 403.02 C 609.48 404.94, 609.75 406.16, 609.84 408.27 C 609.94 410.37, 609.88 411.62, 609.51 413.55 C 609.15 415.49, 608.84 416.50, 608.00 417.93 C 607.17 419.35, 606.63 419.95, 605.34 420.69 C 604.05 421.43, 603.23 421.60, 601.53 421.63 C 599.84 421.66, 598.82 421.49, 596.86 420.84 C 594.90 420.20, 593.74 419.65, 591.72 418.40 C 589.70 417.14, 588.61 416.16, 586.74 414.56 C 584.88 412.96, 583.98 411.85, 582.39 410.40 C 580.80 408.96, 580.14 408.15, 578.79 407.35 C 577.44 406.55, 576.78 406.18, 575.64 406.39 C 574.50 406.60, 573.99 407.19, 573.08 408.40 C 572.17 409.61, 571.91 410.75, 571.10 412.46 C 570.29 414.16, 569.91 415.30, 569.02 416.91 C 568.13 418.53, 567.65 419.42, 566.65 420.53 C 565.66 421.64, 565.18 422.10, 564.05 422.47 C 562.92 422.84, 562.30 422.86, 560.98 422.39 C 559.66 421.92, 558.89 421.46, 557.44 420.13 C 555.98 418.79, 555.14 417.77, 553.71 415.70 C 552.27 413.64, 551.53 412.13, 550.26 409.80 C 548.99 407.47, 548.39 406.01, 547.36 404.05 C 546.33 402.09, 545.86 401.18, 545.12 400.00 C 544.38 398.82, 544.16 398.46, 543.66 398.16 C 543.16 397.87, 542.80 397.96, 542.60 398.53" style="stroke: black; fill: black;"/><path d="M 623.82,416.58 C 624.57 416.91, 625.62 417.05, 627.43 416.93 C 629.23 416.81, 630.51 416.68, 632.83 416.00 C 635.14 415.31, 636.73 414.76, 639.01 413.50 C 641.29 412.24, 642.48 411.33, 644.22 409.70 C 645.97 408.07, 646.76 407.11, 647.75 405.35 C 648.74 403.60, 649.12 402.60, 649.17 400.92 C 649.23 399.24, 648.99 398.27, 648.03 396.96 C 647.07 395.65, 646.20 394.97, 644.39 394.39 C 642.59 393.80, 641.27 393.67, 639.01 394.04 C 636.76 394.41, 635.27 394.91, 633.11 396.24 C 630.96 397.57, 629.67 398.62, 628.22 400.69 C 626.78 402.75, 626.12 404.13, 625.88 406.55 C 625.64 408.98, 625.82 410.44, 627.04 412.80 C 628.25 415.16, 629.34 416.40, 631.95 418.35 C 634.56 420.29, 636.40 421.13, 640.09 422.52 C 643.78 423.91, 646.06 424.46, 650.41 425.29 C 654.77 426.12, 657.29 426.35, 661.87 426.66 C 666.45 426.98, 668.92 426.95, 673.31 426.86 C 677.70 426.76, 679.95 426.56, 683.82 426.18 C 687.70 425.81, 689.57 425.56, 692.67 424.97 C 695.77 424.39, 697.15 424.01, 699.34 423.26 C 701.53 422.50, 702.37 421.95, 703.62 421.19 C 704.88 420.44, 705.31 419.95, 705.63 419.46 C 705.95 418.97, 705.78 418.74, 705.22 418.74 C 704.67 418.74, 704.17 419.04, 702.84 419.45 C 701.51 419.86, 700.69 420.16, 698.56 420.77 C 696.42 421.37, 695.16 421.83, 692.17 422.47 C 689.17 423.12, 687.36 423.54, 683.58 424.00 C 679.80 424.47, 677.57 424.70, 673.26 424.82 C 668.94 424.95, 666.50 424.96, 662.02 424.63 C 657.53 424.29, 655.04 424.03, 650.84 423.14 C 646.64 422.26, 644.44 421.63, 641.00 420.21 C 637.57 418.79, 635.98 417.79, 633.67 416.04 C 631.37 414.30, 630.50 413.34, 629.49 411.50 C 628.47 409.66, 628.35 408.65, 628.60 406.87 C 628.85 405.08, 629.47 404.10, 630.72 402.56 C 631.98 401.03, 633.10 400.24, 634.89 399.19 C 636.67 398.14, 637.89 397.73, 639.65 397.33 C 641.40 396.93, 642.37 396.95, 643.68 397.17 C 644.98 397.39, 645.55 397.69, 646.17 398.41 C 646.79 399.12, 646.93 399.65, 646.78 400.74 C 646.63 401.84, 646.33 402.57, 645.40 403.88 C 644.47 405.20, 643.77 406.02, 642.15 407.31 C 640.54 408.60, 639.42 409.27, 637.33 410.33 C 635.24 411.38, 633.79 411.82, 631.71 412.57 C 629.62 413.33, 628.49 413.57, 626.88 414.11 C 625.27 414.66, 624.28 414.80, 623.66 415.29 C 623.05 415.78, 623.07 416.25, 623.82 416.58" style="stroke: black; fill: black;"/><path d="M 786.01,405.92 C 785.88 405.31, 785.57 404.64, 784.56 403.83 C 783.54 403.02, 782.81 402.40, 780.93 401.86 C 779.04 401.32, 777.69 400.94, 775.15 401.13 C 772.61 401.31, 770.99 401.68, 768.23 402.78 C 765.47 403.89, 763.86 404.82, 761.34 406.66 C 758.81 408.49, 757.37 409.66, 755.62 411.95 C 753.87 414.23, 753.13 415.70, 752.58 418.09 C 752.04 420.49, 752.12 421.88, 752.89 423.92 C 753.65 425.96, 754.51 427.02, 756.41 428.30 C 758.32 429.57, 759.77 430.07, 762.40 430.30 C 765.04 430.53, 766.75 430.41, 769.60 429.46 C 772.46 428.51, 774.02 427.63, 776.69 425.54 C 779.35 423.45, 780.71 422.05, 782.93 419.01 C 785.14 415.96, 786.20 414.09, 787.76 410.33 C 789.32 406.56, 789.92 404.32, 790.74 400.19 C 791.56 396.05, 791.76 393.71, 791.85 389.64 C 791.93 385.57, 791.66 383.42, 791.16 379.83 C 790.66 376.23, 790.26 374.40, 789.36 371.67 C 788.46 368.93, 787.78 367.69, 786.66 366.14 C 785.53 364.60, 784.70 363.99, 783.74 363.94 C 782.78 363.89, 782.14 364.32, 781.86 365.89 C 781.57 367.45, 781.59 368.82, 782.31 371.76 C 783.02 374.70, 783.94 376.66, 785.45 380.57 C 786.95 384.48, 787.94 386.92, 789.84 391.30 C 791.74 395.68, 792.84 398.19, 794.95 402.46 C 797.05 406.72, 798.21 408.93, 800.36 412.62 C 802.51 416.31, 803.66 418.00, 805.71 420.91 C 807.76 423.82, 808.68 425.20, 810.61 427.16 C 812.54 429.13, 813.59 429.88, 815.35 430.73 C 817.11 431.58, 818.53 431.48, 819.39 431.42 C 820.26 431.36, 820.29 430.94, 819.69 430.44 C 819.09 429.94, 817.85 429.94, 816.41 428.92 C 814.98 427.90, 814.29 427.19, 812.52 425.32 C 810.75 423.45, 809.63 422.31, 807.55 419.56 C 805.47 416.81, 804.28 415.18, 802.11 411.58 C 799.94 407.99, 798.78 405.81, 796.72 401.59 C 794.66 397.36, 793.57 394.86, 791.81 390.48 C 790.06 386.10, 789.20 383.61, 787.96 379.69 C 786.72 375.77, 786.43 373.66, 785.63 370.88 C 784.83 368.09, 784.38 366.99, 783.94 365.78 C 783.51 364.56, 783.33 364.48, 783.46 364.79 C 783.58 365.11, 783.94 365.77, 784.57 367.33 C 785.21 368.88, 785.79 369.99, 786.64 372.56 C 787.48 375.14, 788.18 376.79, 788.78 380.20 C 789.38 383.61, 789.67 385.70, 789.63 389.61 C 789.59 393.52, 789.38 395.79, 788.59 399.76 C 787.79 403.72, 787.18 405.88, 785.65 409.43 C 784.12 412.99, 783.06 414.74, 780.93 417.52 C 778.80 420.29, 777.46 421.53, 775.00 423.30 C 772.54 425.08, 771.09 425.63, 768.61 426.41 C 766.13 427.19, 764.76 427.30, 762.60 427.22 C 760.45 427.14, 759.32 426.84, 757.83 426.02 C 756.35 425.19, 755.70 424.52, 755.18 423.07 C 754.65 421.63, 754.62 420.62, 755.19 418.78 C 755.77 416.95, 756.45 415.80, 758.06 413.90 C 759.66 412.01, 760.92 410.87, 763.21 409.30 C 765.50 407.73, 767.07 406.98, 769.51 406.05 C 771.96 405.12, 773.30 404.83, 775.42 404.65 C 777.55 404.47, 778.56 404.85, 780.12 405.15 C 781.69 405.44, 782.22 405.80, 783.23 406.15 C 784.25 406.49, 784.65 406.93, 785.21 406.89 C 785.76 406.84, 786.14 406.53, 786.01 405.92" style="stroke: black; fill: black;"/><path d="M 851.92,407.00 C 851.73 406.32, 851.33 405.46, 850.11 404.57 C 848.89 403.69, 847.99 403.04, 845.83 402.58 C 843.67 402.12, 842.07 401.82, 839.31 402.28 C 836.55 402.73, 834.75 403.41, 832.03 404.86 C 829.31 406.32, 827.70 407.41, 825.71 409.56 C 823.71 411.70, 822.72 413.11, 822.07 415.60 C 821.42 418.09, 821.45 419.62, 822.45 422.02 C 823.45 424.42, 824.54 425.79, 827.07 427.60 C 829.60 429.40, 831.52 430.11, 835.08 431.06 C 838.65 432.01, 840.93 432.26, 844.87 432.35 C 848.81 432.44, 851.10 432.25, 854.78 431.52 C 858.46 430.79, 860.42 430.17, 863.28 428.69 C 866.13 427.20, 867.45 426.13, 869.07 424.10 C 870.68 422.07, 871.14 420.79, 871.34 418.53 C 871.53 416.27, 871.22 414.90, 870.04 412.82 C 868.86 410.73, 867.71 409.61, 865.43 408.10 C 863.16 406.58, 861.46 405.90, 858.67 405.23 C 855.88 404.56, 853.97 404.64, 851.48 404.74 C 848.99 404.83, 847.84 405.19, 846.24 405.69 C 844.64 406.18, 843.99 406.74, 843.49 407.22 C 842.99 407.70, 843.13 407.94, 843.75 408.08 C 844.37 408.22, 845.06 407.91, 846.60 407.90 C 848.14 407.89, 849.19 407.88, 851.45 408.02 C 853.70 408.16, 855.42 408.05, 857.88 408.61 C 860.34 409.17, 861.77 409.68, 863.75 410.81 C 865.72 411.93, 866.70 412.73, 867.75 414.24 C 868.79 415.74, 869.11 416.69, 868.99 418.34 C 868.86 419.99, 868.50 420.89, 867.12 422.49 C 865.73 424.08, 864.61 424.99, 862.05 426.31 C 859.48 427.63, 857.71 428.37, 854.29 429.08 C 850.87 429.78, 848.64 429.97, 844.95 429.84 C 841.25 429.71, 839.05 429.38, 835.81 428.45 C 832.57 427.51, 830.96 426.67, 828.76 425.17 C 826.55 423.68, 825.62 422.76, 824.79 420.99 C 823.95 419.23, 823.94 418.19, 824.58 416.35 C 825.22 414.51, 826.16 413.48, 827.97 411.80 C 829.78 410.11, 831.23 409.12, 833.62 407.92 C 836.01 406.73, 837.58 406.23, 839.91 405.83 C 842.24 405.42, 843.47 405.68, 845.26 405.90 C 847.04 406.12, 847.66 406.50, 848.83 406.92 C 850.00 407.34, 850.47 407.96, 851.09 407.98 C 851.70 407.99, 852.12 407.68, 851.92 407.00" style="stroke: black; fill: black;"/></svg>