<?xml version="1.0" encoding="UTF-8" standalone="no"?>
<!-- Created with Inkscape (http://www.inkscape.org/) -->

<svg
   xmlns:dc="http://purl.org/dc/elements/1.1/"
   xmlns:cc="http://creativecommons.org/ns#"
   xmlns:rdf="http://www.w3.org/1999/02/22-rdf-syntax-ns#"
   xmlns:svg="http://www.w3.org/2000/svg"
   xmlns="http://www.w3.org/2000/svg"
   xmlns:sodipodi="http://sodipodi.sourceforge.net/DTD/sodipodi-0.dtd"
   xmlns:inkscape="http://www.inkscape.org/namespaces/inkscape"
   width="1000"
   height="356.81067"
   id="svg8926"
   version="1.1"
   inkscape:version="0.48.5 r10040"
   sodipodi:docname="New document 3">
  <defs
     id="defs8928" />
  <sodipodi:namedview
     id="base"
     pagecolor="#ffffff"
     bordercolor="#666666"
     borderopacity="1.0"
     inkscape:pageopacity="0.0"
     inkscape:pageshadow="2"
     inkscape:zoom="0.2840332"
     inkscape:cx="1063.0745"
     inkscape:cy="-81.690761"
     inkscape:document-units="px"
     inkscape:current-layer="layer1"
     showgrid="false"
     fit-margin-left="0.5"
     fit-margin-bottom="0.5"
     fit-margin-top="0.5"
     fit-margin-right="0.5"
     inkscape:window-width="1920"
     inkscape:window-height="1028"
     inkscape:window-x="-8"
     inkscape:window-y="-8"
     inkscape:window-maximized="1" />
  <metadata
     id="metadata8931">
    <rdf:RDF>
      <cc:Work
         rdf:about="">
        <dc:format>image/svg+xml</dc:format>
        <dc:type
           rdf:resource="http://purl.org/dc/dcmitype/StillImage" />
        <dc:title></dc:title>
      </cc:Work>
    </rdf:RDF>
  </metadata>
  <g
     inkscape:label="Layer 1"
     inkscape:groupmode="layer"
     id="layer1"
     transform="translate(-494.21604,715.83796)">
    <g
       style="fill:#052d49;fill-opacity:1;stroke:none"
       id="g7431"
       transform="matrix(3.4212563,0,0,3.4212563,494.71604,-715.33796)">
      <path
         style="fill-rule:nonzero"
         inkscape:connector-curvature="0"
         id="path7433"
         d="m 284.367,104 0,-104 7.631,0 0,104 -7.631,0 m -42.487,-69.3315 7.583,0 0,32.9722 -7.96,0 -11.872,-21.197 0,21.197 -7.631,0 0,-32.9722 7.96,0 11.92,21.4788 0,-21.4788 m -49.978,-0.8481 c 10.927,0 17.428,8.2905 17.428,17.3343 0,9.0436 -6.501,17.3342 -17.428,17.3342 -10.976,0 -17.477,-8.2906 -17.477,-17.3342 0,-9.0438 6.501,-17.3343 17.477,-17.3343 m 9.657,17.3343 c 0,-5.4168 -3.676,-10.457 -9.657,-10.457 -6.03,0 -9.656,5.0402 -9.656,10.457 0,5.4167 3.626,10.4568 9.656,10.4568 5.981,0 9.657,-5.0401 9.657,-10.4568 m -132.8801,-9.8921 0,-6.5941 22.5611,0 0,6.5941 -7.4899,0 0,26.3781 -7.6306,0 0,-26.3781 -7.4406,0 m 80.8771,7.0183 12.482,0 0,5.9834 -12.482,0 0,7.2522 12.482,0 0,6.1242 -20.113,0 0,-32.9722 20.113,0 0,6.1242 -12.482,0 0,7.4882 M 116.96,34.6685 c 7.3,0 12.011,5.5118 12.011,11.9176 0,4.6161 -2.45,8.713 -6.549,10.6452 l 6.596,10.4094 -8.855,0 -5.843,-9.1388 -3.58,0 0,9.1388 -7.63,0 0,-32.9722 13.85,0 m 4.285,11.9176 c 0,-3.0621 -2.073,-5.7 -5.276,-5.7 l -5.229,0 0,11.3984 5.229,0 c 3.203,0 5.276,-2.6363 5.276,-5.6984 m -67.4982,17.051 -11.7292,0 -1.2724,4.0036 -8.1497,0 11.7767,-32.9722 7.0182,0 11.9175,32.9722 -8.2905,0 -1.2706,-4.0036 m -5.8426,-19.5481 -4.051,13.5664 8.0071,0 L 47.9042,44.089 M 13.8006,34.6685 c 7.3015,0 12.0125,5.5118 12.0125,11.9176 0,6.4057 -4.711,11.9158 -12.0125,11.9158 l -6.17001,0 0,9.1388 -7.63059,0 0,-32.9722 13.8006,0 m 4.3344,11.9176 c 0,-3.0621 -2.0731,-5.7 -5.276,-5.7 l -5.22841,0 0,11.3984 5.22841,0 c 3.2029,0 5.276,-2.6363 5.276,-5.6984"
         vector-effect="none" />
    </g>
  </g>
</svg>
