<?xml version="1.0" encoding="utf-8" ?>
<svg baseProfile="tiny" height="576px" version="1.2" width="384px" xmlns="http://www.w3.org/2000/svg" xmlns:ev="http://www.w3.org/2001/xml-events" xmlns:xlink="http://www.w3.org/1999/xlink"><defs /><g id="handwriting"><path d="M 36.59062957763672,105.16459655761719 L 33.44297409057617,105.38943481445312 L 30.07048225402832,104.26527404785156 L 26.47315788269043,99.31895446777344 L 24.674497604370117,94.59746551513672 L 24.0,87.17799377441406 L 26.6979923248291,83.3558349609375 L 33.66780471801758,82.0068359375 L 37.93962478637695,84.47999572753906 L 41.536949157714844,87.85249328613281 L 45.13427734375,93.24847412109375 L 49.1812629699707,99.76861572265625 L 50.53025817871094,101.79210662841797 L 50.53025817871094,102.24177551269531 L 49.40609359741211,100.443115234375 L 45.808773040771484,92.7988052368164 L 45.13427734375,86.27865600585938 L 46.48326873779297,82.23165893554688 L 47.382598876953125,81.7820053100586 L 49.85575866699219,81.7820053100586 L 57.949737548828125,89.6511459350586 L 59.97323226928711,95.94646453857422 L 59.74839782714844,99.54378509521484 L 58.17456817626953,101.11760711669922 L 55.47657775878906,100.66795349121094 L 53.45307922363281,98.41961669921875 L 52.55375289916992,96.17129516601562 L 53.22825241088867,93.9229736328125 L 64.24505615234375,94.82229614257812 L 70.76519775390625,104.04044342041016 L 73.91285705566406,113.70824432373047 L 75.26185607910156,119.77872467041016 L 75.48668670654297,121.8022232055664 L 75.48668670654297,122.70154571533203 L 73.91285705566406,116.63106536865234 L 72.33902740478516,104.04044342041016 L 71.439697265625,95.04712677001953 L 70.54036712646484,87.85249328613281 L 68.74170684814453,76.38601684570312 L 67.39271545410156,67.84237670898438 L 66.71821594238281,64.69471740722656 L 66.26853942871094,62.221561431884766 L 66.26853942871094,61.99672317504883 L 66.26853942871094,66.04370880126953 L 66.49337768554688,74.81218719482422 L 67.84237670898438,85.37932586669922 L 70.99003601074219,93.02363586425781 L 78.85917663574219,102.46660614013672 L 82.23167419433594,104.49010467529297 L 84.03033447265625,103.59077453613281 L 84.704833984375,99.76861572265625 L 82.45649719238281,90.77530670166016 L 81.10749816894531,89.20148468017578 L 80.4330062866211,88.52698516845703 L 80.88267517089844,88.75181579589844 L 86.0538330078125,91.67463684082031 L 89.6511459350586,94.37262725830078 L 93.24846649169922,97.7451171875 L 94.59746551513672,100.443115234375 L 95.4968032836914,102.46660614013672 L 95.94645690917969,103.81560516357422 L 95.94645690917969,104.7149429321289 L 95.94645690917969,105.61426544189453 L 94.37263488769531,103.3659439086914 L 93.02363586425781,99.99345397949219 L 92.57396697998047,93.9229736328125 L 93.24846649169922,91.89947509765625 L 95.4968032836914,90.77530670166016 L 98.86929321289062,92.34913635253906 L 104.26527404785156,98.8692855834961 L 106.06393432617188,101.34245300292969 L 106.96327209472656,102.69144439697266 L 107.41292572021484,103.59077453613281 L 106.51360321044922,99.76861572265625 L 104.93977355957031,91.00013732910156 L 102.69144439697266,77.73501586914062 L 101.34244537353516,68.74169921875 L 99.99344635009766,59.52356719970703 L 98.41962432861328,54.57724380493164 L 96.62095642089844,53.67791748046875 L 94.37263488769531,55.251739501953125 L 92.79881286621094,57.50007629394531 L 91.0001449584961,63.795387268066406 L 95.94645690917969,79.75851440429688 L 101.7921142578125,87.85249328613281 L 108.0874252319336,92.573974609375 L 114.38274383544922,96.62096405029297 L 118.65457153320312,99.0941162109375 L 120.00357055664062,99.76861572265625 L 120.4532241821289,99.76861572265625" fill="none" stroke="black" stroke-width="2" /><path d="M 120.4532241821289,99.76861572265625 L 121.3525619506836,102.69143676757812 L 125.39955139160156,108.98674774169922 L 127.8727035522461,109.8860855102539 L 129.89620971679688,104.04043579101562 L 129.446533203125,97.07062530517578 L 128.99688720703125,95.49678802490234 L 128.99688720703125,94.8222885131836 L 129.446533203125,94.8222885131836 L 133.94317626953125,104.49010467529297 L 135.51702880859375,107.86259460449219 L 136.86602783203125,110.33574676513672 L 138.2150115966797,111.45990753173828 L 140.46334838867188,106.51359558105469 L 140.9130096435547,98.64444732666016 L 140.9130096435547,92.79879760742188 L 140.9130096435547,91.67463684082031 L 141.58750915527344,91.89946746826172 L 142.93649291992188,94.59745788574219 L 145.63449096679688,100.66793823242188 L 148.33248901367188,104.93975830078125 L 149.68148803710938,106.7384262084961 L 152.15463256835938,108.5370864868164 L 153.27880859375,107.18809509277344 L 153.50363159179688,102.46660614013672 L 154.40296936035156,94.59745788574219 L 154.6278076171875,92.34913635253906 L 155.30230712890625,91.89946746826172 L 156.20162963867188,92.34913635253906 L 158.8996124267578,95.04712677001953 L 162.0472869873047,98.64444732666016 L 164.52044677734375,101.56726837158203 L 165.8694305419922,103.59076690673828 L 167.6680908203125,106.06392669677734 L 169.01708984375,107.86259460449219 L 169.01708984375,108.76191711425781 L 167.2184295654297,105.6142578125 L 165.64459228515625,99.76861572265625 L 165.41978454589844,95.04712677001953 L 165.8694305419922,93.02363586425781 L 166.76876831054688,91.00013732910156 L 167.44326782226562,90.55046844482422 L 169.01708984375,90.55046844482422 L 172.3895721435547,92.12429809570312 L 175.76206970214844,94.59745788574219 L 178.9097442626953,99.3189468383789 L 180.2587432861328,106.7384262084961 L 178.9097442626953,109.8860855102539 L 177.11106872558594,110.56058502197266 L 175.0875701904297,110.56058502197266 L 173.06407165527344,106.06392669677734 L 173.7385711669922,102.91626739501953 L 176.2117462158203,101.11760711669922 L 178.68490600585938,101.56726837158203 L 182.2822265625,104.2652587890625 L 186.77886962890625,108.31224822998047 L 188.3527069091797,109.8860855102539 L 189.7017059326172,111.01023864746094 L 190.82586669921875,111.90957641601562 L 191.72520446777344,111.68473815917969 L 191.72520446777344,102.69143676757812 L 190.82586669921875,91.44979858398438 L 190.82586669921875,88.07730865478516 L 190.82586669921875,89.20147705078125 L 191.27552795410156,91.22496795654297 L 193.52386474609375,95.94645690917969 L 195.77218627929688,99.54377746582031 L 199.14468383789062,104.71492767333984 L 201.84268188476562,107.41292572021484 L 202.29232788085938,107.86259460449219 L 203.64132690429688,108.31224822998047 L 202.5171661376953,99.54377746582031 L 202.96682739257812,96.84577941894531 L 203.41648864746094,96.62095642089844 L 203.8661651611328,96.1712875366211 L 203.8661651611328,95.49678802490234 L 204.0909881591797,94.8222885131836 L 204.31582641601562,93.69813537597656 L 204.54066467285156,92.79879760742188 L 205.2151641845703,92.34913635253906 L 207.68832397460938,94.59745788574219 L 212.6346435546875,104.04043579101562 L 215.78228759765625,111.68473815917969 L 219.37962341308594,120.90288543701172 L 221.852783203125,126.07404327392578 L 223.65142822265625,131.24517822265625 L 223.8762664794922,132.81903076171875 L 222.7521209716797,131.919677734375 L 218.03062438964844,120.45321655273438 L 216.68162536621094,109.66124725341797 L 215.78228759765625,101.34243774414062 L 215.5574493408203,97.29544830322266 L 215.5574493408203,93.24846649169922 L 216.00714111328125,95.27195739746094 L 218.7051239013672,102.69143676757812 L 222.30242919921875,108.98674774169922 L 225.2252655029297,112.80890655517578 L 228.3729248046875,115.73172760009766 L 229.72190856933594,116.85589599609375 L 229.94674682617188,115.73172760009766 L 226.34942626953125,109.66124725341797 L 223.8762664794922,106.9632568359375 L 222.9769287109375,106.51359558105469 L 225.00042724609375,106.06392669677734 L 226.5742645263672,104.2652587890625 L 228.14810180664062,98.64444732666016 L 229.04742431640625,95.27195739746094 L 229.49710083007812,93.4732894897461 L 230.84608459472656,91.44979858398438 L 233.99374389648438,92.79879760742188 L 240.96356201171875,98.86927795410156 L 244.5608673095703,104.04043579101562 L 245.9098663330078,107.63774871826172 L 245.9098663330078,109.43641662597656 L 245.460205078125,110.11091613769531 L 244.5608673095703,109.43641662597656 L 242.987060546875,104.2652587890625 L 242.987060546875,100.443115234375 L 244.11122131347656,97.7451171875 L 245.23536682128906,97.52027893066406 L 246.58436584472656,98.41961669921875 L 249.9568634033203,102.91626739501953 L 256.02734375,111.2350845336914 L 257.1515197753906,113.70823669433594 L 256.4770202636719,111.68473815917969 L 256.02734375,104.93975830078125 L 256.4770202636719,97.9699478149414 L 258.05084228515625,96.62095642089844 L 260.0743408203125,96.84577941894531 L 262.9971618652344,99.0941162109375 L 268.61798095703125,104.2652587890625 L 270.4166259765625,106.06392669677734 L 271.31597900390625,106.9632568359375 L 269.74212646484375,102.46660614013672 L 267.4938049316406,96.84577941894531 L 264.57098388671875,90.77529907226562 L 260.52398681640625,79.53367614746094 L 256.70184326171875,68.06719970703125 L 253.77902221679688,60.872554779052734 L 248.83270263671875,53.0034065246582 L 245.23536682128906,53.45306396484375 L 243.66156005859375,57.94973373413086 L 249.73204040527344,79.53367614746094 L 260.0743408203125,93.02363586425781 L 271.765625,99.76861572265625 L 274.6884765625,101.11760711669922 L 274.463623046875,101.11760711669922" fill="none" stroke="black" stroke-width="2" /><path d="M 274.463623046875,101.11760711669922 L 272.8897705078125,102.0169448852539 L 264.121337890625,101.11760711669922 L 260.9736633300781,96.62096405029297 L 259.1750183105469,90.32563781738281 L 259.8494873046875,88.97664642333984 L 263.22198486328125,90.10081481933594 L 274.91326904296875,101.34245300292969 L 275.5877685546875,94.37262725830078 L 279.859619140625,90.55048370361328 L 284.8059387207031,95.94646453857422 L 297.3965759277344,114.15791320800781 L 300.5442199707031,118.42973327636719 L 302.3428955078125,120.90289306640625 L 301.8932189941406,120.67805480957031 L 296.9468994140625,108.98675537109375 L 292.22540283203125,93.24847412109375 L 289.0777587890625,79.75851440429688 L 286.3797607421875,67.61754608154297 L 285.255615234375,59.74839782714844 L 285.255615234375,52.32891082763672 L 285.4804382324219,52.104087829589844 L 285.93011474609375,53.67791748046875 L 286.8294372558594,55.70140838623047" fill="none" stroke="black" stroke-width="2" /><path d="M 286.8294372558594,55.70140838623047 L 290.2019348144531,61.547061920166016 L 294.4737854003906,66.49337768554688 L 300.0945739746094,66.94304656982422 L 296.27239990234375,54.80208206176758 L 294.92340087890625,53.00341796875 L 305.0408935546875,60.19806671142578 L 316.7322082519531,78.18468475341797 L 320.5543518066406,86.05382537841797 L 319.8798522949219,86.50349426269531 L 316.28253173828125,80.43301391601562 L 313.58453369140625,67.16787719726562 L 312.23553466796875,53.453086853027344 L 308.4133605957031,32.993316650390625 L 305.94024658203125,24.899337768554688 L 305.71539306640625,24.0 L 305.71539306640625,30.29532241821289 L 306.3898620605469,34.791969299316406 L 308.4133605957031,40.862449645996094 L 313.3597106933594,51.8792610168457 L 316.5073547363281,60.19806671142578 L 322.57781982421875,68.74171447753906 L 325.9503173828125,70.31553649902344 L 326.3999938964844,62.221561431884766 L 318.3060302734375,52.778587341308594" fill="none" stroke="black" stroke-width="2" /></g><rect fill="none" height="576" stroke="gray" stroke-width="1" width="384" x="0" y="0" /></svg>