<svg xmlns="http://www.w3.org/2000/svg" xmlns:xlink="http://www.w3.org/1999/xlink" width="256" zoomAndPan="magnify" viewBox="0 0 192 191.999996" height="256" preserveAspectRatio="xMidYMid meet" version="1.0"><defs><g/><clipPath id="f7e12c86cb"><path d="M 2.753906 82.546875 L 192 82.546875 L 192 97.785156 L 2.753906 97.785156 Z M 2.753906 82.546875 " clip-rule="nonzero"/></clipPath></defs><rect x="-19.2" width="230.4" fill="#ffffff" y="-19.2" height="230.399995" fill-opacity="1"/><rect x="-19.2" width="230.4" fill="#ffffff" y="-19.2" height="230.399995" fill-opacity="1"/><g fill="#000000" fill-opacity="1"><g transform="translate(26.973924, 106.046286)"><g><path d="M 9.328125 -32.328125 L 9.328125 -31.796875 C 8.828125 -31.765625 8.476562 -31.648438 8.28125 -31.453125 C 8.09375 -31.265625 8 -30.859375 8 -30.234375 L 8 -3.015625 L 21.9375 -3.015625 C 22.46875 -3.015625 22.863281 -3.070312 23.125 -3.1875 C 23.394531 -3.3125 23.59375 -3.625 23.71875 -4.125 L 24.25 -4.125 L 24.25 1.15625 L 23.71875 1.15625 C 23.59375 0.675781 23.425781 0.363281 23.21875 0.21875 C 23.007812 0.0703125 22.597656 0 21.984375 0 L 3.203125 0 L 3.203125 -0.53125 C 3.703125 -0.5625 4.03125 -0.671875 4.1875 -0.859375 C 4.351562 -1.054688 4.4375 -1.46875 4.4375 -2.09375 L 4.4375 -30.328125 C 4.4375 -30.890625 4.351562 -31.265625 4.1875 -31.453125 C 4.03125 -31.648438 3.703125 -31.765625 3.203125 -31.796875 L 3.203125 -32.328125 Z M 9.328125 -32.328125 "/></g></g></g><g fill="#000000" fill-opacity="1"><g transform="translate(51.659143, 106.046286)"><g><path d="M 9.328125 -32.328125 L 9.328125 -31.796875 C 8.828125 -31.734375 8.523438 -31.550781 8.421875 -31.25 C 8.316406 -30.957031 8.265625 -30.578125 8.265625 -30.109375 L 8.265625 -8.4375 C 8.265625 -6.476562 8.851562 -5.007812 10.03125 -4.03125 C 11.21875 -3.0625 13.25 -2.578125 16.125 -2.578125 C 18.988281 -2.578125 21.015625 -3.054688 22.203125 -4.015625 C 23.390625 -4.984375 23.984375 -6.441406 23.984375 -8.390625 L 23.984375 -30.15625 C 23.984375 -30.71875 23.90625 -31.113281 23.75 -31.34375 C 23.601562 -31.582031 23.296875 -31.734375 22.828125 -31.796875 L 22.828125 -32.328125 L 28.515625 -32.328125 L 28.515625 -31.796875 C 28.128906 -31.734375 27.867188 -31.597656 27.734375 -31.390625 C 27.597656 -31.179688 27.53125 -30.785156 27.53125 -30.203125 L 27.53125 -8.75 C 27.53125 -5.789062 26.613281 -3.519531 24.78125 -1.9375 C 22.945312 -0.351562 20.0625 0.4375 16.125 0.4375 C 12.15625 0.4375 9.257812 -0.363281 7.4375 -1.96875 C 5.613281 -3.582031 4.703125 -5.84375 4.703125 -8.75 L 4.703125 -30.109375 C 4.703125 -30.609375 4.632812 -31 4.5 -31.28125 C 4.375 -31.5625 4.054688 -31.734375 3.546875 -31.796875 L 3.546875 -32.328125 Z M 9.328125 -32.328125 "/></g></g></g><g fill="#000000" fill-opacity="1"><g transform="translate(83.714412, 106.046286)"><g><path d="M 7.6875 -32.328125 L 7.6875 -31.796875 C 7.414062 -31.734375 7.21875 -31.671875 7.09375 -31.609375 C 6.976562 -31.554688 6.921875 -31.425781 6.921875 -31.21875 C 6.921875 -31.101562 6.972656 -30.953125 7.078125 -30.765625 C 7.179688 -30.585938 7.320312 -30.335938 7.5 -30.015625 L 13.328125 -20.296875 C 15.066406 -23.429688 16.394531 -25.820312 17.3125 -27.46875 C 18.226562 -29.113281 18.75 -30.035156 18.875 -30.234375 C 18.988281 -30.441406 19.097656 -30.640625 19.203125 -30.828125 C 19.304688 -31.023438 19.359375 -31.1875 19.359375 -31.3125 C 19.359375 -31.632812 19.148438 -31.796875 18.734375 -31.796875 L 18.734375 -32.328125 L 24.953125 -32.328125 L 24.953125 -31.796875 C 24.242188 -31.734375 23.6875 -31.492188 23.28125 -31.078125 C 22.882812 -30.671875 22.554688 -30.210938 22.296875 -29.703125 L 15.1875 -17.1875 L 24.203125 -2.046875 C 24.523438 -1.484375 24.8125 -1.097656 25.0625 -0.890625 C 25.3125 -0.679688 25.644531 -0.5625 26.0625 -0.53125 L 26.0625 0 L 19.890625 0 L 19.890625 -0.53125 C 20.191406 -0.5625 20.382812 -0.601562 20.46875 -0.65625 C 20.5625 -0.71875 20.609375 -0.828125 20.609375 -0.984375 C 20.609375 -1.128906 20.476562 -1.429688 20.21875 -1.890625 C 19.96875 -2.347656 19.664062 -2.875 19.3125 -3.46875 L 13.1875 -13.671875 C 13.007812 -13.347656 12.613281 -12.675781 12 -11.65625 C 11.394531 -10.632812 10.535156 -9.117188 9.421875 -7.109375 C 8.316406 -5.179688 7.503906 -3.75 6.984375 -2.8125 C 6.472656 -1.882812 6.21875 -1.300781 6.21875 -1.0625 C 6.21875 -0.738281 6.453125 -0.5625 6.921875 -0.53125 L 6.921875 0 L 1.015625 0 L 1.015625 -0.53125 C 1.460938 -0.59375 1.820312 -0.753906 2.09375 -1.015625 C 2.351562 -1.253906 2.828125 -1.96875 3.515625 -3.15625 L 11.28125 -16.78125 L 3.640625 -29.75 C 3.285156 -30.375 2.941406 -30.84375 2.609375 -31.15625 C 2.285156 -31.46875 1.769531 -31.679688 1.0625 -31.796875 L 1.0625 -32.328125 Z M 7.6875 -32.328125 "/></g></g></g><g fill="#000000" fill-opacity="1"><g transform="translate(110.841517, 106.046286)"><g><path d="M 7.6875 -32.328125 L 7.6875 -31.796875 C 7.414062 -31.734375 7.21875 -31.671875 7.09375 -31.609375 C 6.976562 -31.554688 6.921875 -31.425781 6.921875 -31.21875 C 6.921875 -31.101562 6.972656 -30.953125 7.078125 -30.765625 C 7.179688 -30.585938 7.320312 -30.335938 7.5 -30.015625 L 13.328125 -20.296875 C 15.066406 -23.429688 16.394531 -25.820312 17.3125 -27.46875 C 18.226562 -29.113281 18.75 -30.035156 18.875 -30.234375 C 18.988281 -30.441406 19.097656 -30.640625 19.203125 -30.828125 C 19.304688 -31.023438 19.359375 -31.1875 19.359375 -31.3125 C 19.359375 -31.632812 19.148438 -31.796875 18.734375 -31.796875 L 18.734375 -32.328125 L 24.953125 -32.328125 L 24.953125 -31.796875 C 24.242188 -31.734375 23.6875 -31.492188 23.28125 -31.078125 C 22.882812 -30.671875 22.554688 -30.210938 22.296875 -29.703125 L 15.1875 -17.1875 L 24.203125 -2.046875 C 24.523438 -1.484375 24.8125 -1.097656 25.0625 -0.890625 C 25.3125 -0.679688 25.644531 -0.5625 26.0625 -0.53125 L 26.0625 0 L 19.890625 0 L 19.890625 -0.53125 C 20.191406 -0.5625 20.382812 -0.601562 20.46875 -0.65625 C 20.5625 -0.71875 20.609375 -0.828125 20.609375 -0.984375 C 20.609375 -1.128906 20.476562 -1.429688 20.21875 -1.890625 C 19.96875 -2.347656 19.664062 -2.875 19.3125 -3.46875 L 13.1875 -13.671875 C 13.007812 -13.347656 12.613281 -12.675781 12 -11.65625 C 11.394531 -10.632812 10.535156 -9.117188 9.421875 -7.109375 C 8.316406 -5.179688 7.503906 -3.75 6.984375 -2.8125 C 6.472656 -1.882812 6.21875 -1.300781 6.21875 -1.0625 C 6.21875 -0.738281 6.453125 -0.5625 6.921875 -0.53125 L 6.921875 0 L 1.015625 0 L 1.015625 -0.53125 C 1.460938 -0.59375 1.820312 -0.753906 2.09375 -1.015625 C 2.351562 -1.253906 2.828125 -1.96875 3.515625 -3.15625 L 11.28125 -16.78125 L 3.640625 -29.75 C 3.285156 -30.375 2.941406 -30.84375 2.609375 -31.15625 C 2.285156 -31.46875 1.769531 -31.679688 1.0625 -31.796875 L 1.0625 -32.328125 Z M 7.6875 -32.328125 "/></g></g></g><g fill="#000000" fill-opacity="1"><g transform="translate(137.968622, 106.046286)"><g><path d="M 7.6875 -32.328125 L 7.6875 -31.796875 C 7.414062 -31.734375 7.21875 -31.671875 7.09375 -31.609375 C 6.976562 -31.554688 6.921875 -31.425781 6.921875 -31.21875 C 6.921875 -31.101562 6.972656 -30.953125 7.078125 -30.765625 C 7.179688 -30.585938 7.320312 -30.335938 7.5 -30.015625 L 13.328125 -20.296875 C 15.066406 -23.429688 16.394531 -25.820312 17.3125 -27.46875 C 18.226562 -29.113281 18.75 -30.035156 18.875 -30.234375 C 18.988281 -30.441406 19.097656 -30.640625 19.203125 -30.828125 C 19.304688 -31.023438 19.359375 -31.1875 19.359375 -31.3125 C 19.359375 -31.632812 19.148438 -31.796875 18.734375 -31.796875 L 18.734375 -32.328125 L 24.953125 -32.328125 L 24.953125 -31.796875 C 24.242188 -31.734375 23.6875 -31.492188 23.28125 -31.078125 C 22.882812 -30.671875 22.554688 -30.210938 22.296875 -29.703125 L 15.1875 -17.1875 L 24.203125 -2.046875 C 24.523438 -1.484375 24.8125 -1.097656 25.0625 -0.890625 C 25.3125 -0.679688 25.644531 -0.5625 26.0625 -0.53125 L 26.0625 0 L 19.890625 0 L 19.890625 -0.53125 C 20.191406 -0.5625 20.382812 -0.601562 20.46875 -0.65625 C 20.5625 -0.71875 20.609375 -0.828125 20.609375 -0.984375 C 20.609375 -1.128906 20.476562 -1.429688 20.21875 -1.890625 C 19.96875 -2.347656 19.664062 -2.875 19.3125 -3.46875 L 13.1875 -13.671875 C 13.007812 -13.347656 12.613281 -12.675781 12 -11.65625 C 11.394531 -10.632812 10.535156 -9.117188 9.421875 -7.109375 C 8.316406 -5.179688 7.503906 -3.75 6.984375 -2.8125 C 6.472656 -1.882812 6.21875 -1.300781 6.21875 -1.0625 C 6.21875 -0.738281 6.453125 -0.5625 6.921875 -0.53125 L 6.921875 0 L 1.015625 0 L 1.015625 -0.53125 C 1.460938 -0.59375 1.820312 -0.753906 2.09375 -1.015625 C 2.351562 -1.253906 2.828125 -1.96875 3.515625 -3.15625 L 11.28125 -16.78125 L 3.640625 -29.75 C 3.285156 -30.375 2.941406 -30.84375 2.609375 -31.15625 C 2.285156 -31.46875 1.769531 -31.679688 1.0625 -31.796875 L 1.0625 -32.328125 Z M 7.6875 -32.328125 "/></g></g></g><g fill="#000000" fill-opacity="1"><g transform="translate(165.095934, 106.046286)"><g/></g></g><g clip-path="url(#f7e12c86cb)"><path fill="#ffffff" d="M 2.753906 82.546875 L 194.769531 82.546875 L 194.769531 97.785156 L 2.753906 97.785156 Z M 2.753906 82.546875 " fill-opacity="1" fill-rule="nonzero"/></g><g fill="#000000" fill-opacity="1"><g transform="translate(78.61007, 92.348927)"><g><path d="M 0.484375 -5.484375 L 0.59375 -5.484375 C 0.59375 -5.390625 0.625 -5.320312 0.6875 -5.28125 C 0.757812 -5.25 0.84375 -5.234375 0.9375 -5.234375 L 5.125 -5.234375 C 5.351562 -5.234375 5.46875 -5.316406 5.46875 -5.484375 L 5.578125 -5.484375 L 5.578125 -4.3125 L 5.46875 -4.3125 C 5.46875 -4.414062 5.4375 -4.484375 5.375 -4.515625 C 5.320312 -4.554688 5.238281 -4.578125 5.125 -4.578125 L 3.453125 -4.578125 L 3.453125 -0.359375 C 3.453125 -0.285156 3.46875 -0.226562 3.5 -0.1875 C 3.53125 -0.144531 3.59375 -0.125 3.6875 -0.125 L 3.6875 0 L 2.375 0 L 2.375 -0.125 C 2.53125 -0.125 2.609375 -0.203125 2.609375 -0.359375 L 2.609375 -4.578125 L 0.9375 -4.578125 C 0.832031 -4.578125 0.75 -4.554688 0.6875 -4.515625 C 0.625 -4.484375 0.59375 -4.414062 0.59375 -4.3125 L 0.484375 -4.3125 Z M 0.484375 -5.484375 "/></g></g></g><g fill="#000000" fill-opacity="1"><g transform="translate(84.679658, 92.348927)"><g><path d="M 1.734375 -1.84375 L 3.671875 -1.84375 L 2.65625 -3.9375 Z M 3.484375 -4.375 L 3.484375 -4.25 C 3.429688 -4.25 3.378906 -4.238281 3.328125 -4.21875 C 3.285156 -4.195312 3.265625 -4.171875 3.265625 -4.140625 C 3.265625 -4.097656 3.269531 -4.0625 3.28125 -4.03125 C 3.300781 -4 3.316406 -3.96875 3.328125 -3.9375 L 5.015625 -0.34375 C 5.046875 -0.269531 5.082031 -0.210938 5.125 -0.171875 C 5.175781 -0.140625 5.25 -0.125 5.34375 -0.125 L 5.34375 0 L 4.078125 0 L 4.078125 -0.125 C 4.203125 -0.125 4.28125 -0.128906 4.3125 -0.140625 C 4.351562 -0.160156 4.375 -0.191406 4.375 -0.234375 C 4.375 -0.285156 4.363281 -0.332031 4.34375 -0.375 C 4.332031 -0.414062 4.316406 -0.460938 4.296875 -0.515625 L 3.921875 -1.296875 L 1.5 -1.296875 L 1.15625 -0.53125 C 1.125 -0.445312 1.09375 -0.382812 1.0625 -0.34375 C 1.039062 -0.300781 1.03125 -0.265625 1.03125 -0.234375 C 1.03125 -0.203125 1.046875 -0.175781 1.078125 -0.15625 C 1.117188 -0.132812 1.191406 -0.125 1.296875 -0.125 L 1.296875 0 L 0.1875 0 L 0.1875 -0.125 C 0.3125 -0.125 0.390625 -0.15625 0.421875 -0.21875 C 0.460938 -0.28125 0.515625 -0.382812 0.578125 -0.53125 L 2 -3.78125 C 2.050781 -3.894531 2.082031 -3.972656 2.09375 -4.015625 C 2.113281 -4.054688 2.125 -4.097656 2.125 -4.140625 C 2.125 -4.160156 2.101562 -4.1875 2.0625 -4.21875 C 2.03125 -4.25 1.96875 -4.265625 1.875 -4.265625 L 1.875 -4.375 Z M 3.484375 -4.375 "/></g></g></g><g fill="#000000" fill-opacity="1"><g transform="translate(90.202884, 92.348927)"><g><path d="M 2.046875 -4.375 L 2.046875 -4.25 C 1.941406 -4.25 1.875 -4.234375 1.84375 -4.203125 C 1.8125 -4.171875 1.796875 -4.097656 1.796875 -3.984375 L 1.796875 -0.5625 L 4.921875 -0.5625 C 5.015625 -0.5625 5.078125 -0.578125 5.109375 -0.609375 C 5.148438 -0.648438 5.171875 -0.734375 5.171875 -0.859375 L 5.28125 -0.859375 L 5.28125 0.21875 L 5.171875 0.21875 C 5.171875 0.132812 5.148438 0.078125 5.109375 0.046875 C 5.078125 0.015625 5.015625 0 4.921875 0 L 0.9375 0 L 0.9375 -0.125 C 1.039062 -0.125 1.109375 -0.140625 1.140625 -0.171875 C 1.171875 -0.210938 1.1875 -0.285156 1.1875 -0.390625 L 1.1875 -3.984375 C 1.1875 -4.097656 1.164062 -4.171875 1.125 -4.203125 C 1.09375 -4.234375 1.03125 -4.25 0.9375 -4.25 L 0.9375 -4.375 Z M 2.046875 -4.375 "/></g></g></g><g fill="#000000" fill-opacity="1"><g transform="translate(95.72611, 92.348927)"><g><path d="M 5.3125 -4.609375 L 5.3125 -3.578125 L 5.1875 -3.578125 C 5.1875 -3.671875 5.164062 -3.734375 5.125 -3.765625 C 5.09375 -3.796875 5.03125 -3.8125 4.9375 -3.8125 L 1.8125 -3.8125 L 1.8125 -2.53125 L 4.015625 -2.53125 C 4.109375 -2.53125 4.171875 -2.546875 4.203125 -2.578125 C 4.242188 -2.609375 4.265625 -2.671875 4.265625 -2.765625 L 4.375 -2.765625 L 4.375 -1.734375 L 4.265625 -1.734375 C 4.265625 -1.828125 4.242188 -1.890625 4.203125 -1.921875 C 4.171875 -1.953125 4.109375 -1.96875 4.015625 -1.96875 L 1.8125 -1.96875 L 1.8125 -0.5625 L 5.046875 -0.5625 C 5.140625 -0.5625 5.203125 -0.578125 5.234375 -0.609375 C 5.273438 -0.640625 5.296875 -0.703125 5.296875 -0.796875 L 5.421875 -0.796875 L 5.421875 0.234375 L 5.296875 0.234375 C 5.296875 0.140625 5.273438 0.078125 5.234375 0.046875 C 5.203125 0.015625 5.140625 0 5.046875 0 L 0.9375 0 L 0.9375 -0.125 C 1.03125 -0.125 1.085938 -0.140625 1.109375 -0.171875 C 1.140625 -0.210938 1.15625 -0.285156 1.15625 -0.390625 L 1.15625 -3.96875 C 1.15625 -4.082031 1.140625 -4.15625 1.109375 -4.1875 C 1.085938 -4.226562 1.03125 -4.25 0.9375 -4.25 L 0.9375 -4.375 L 4.9375 -4.375 C 5.03125 -4.375 5.09375 -4.390625 5.125 -4.421875 C 5.164062 -4.453125 5.1875 -4.515625 5.1875 -4.609375 Z M 5.3125 -4.609375 "/></g></g></g><g fill="#000000" fill-opacity="1"><g transform="translate(101.795698, 92.348927)"><g><path d="M 2.359375 -4.375 L 2.359375 -4.25 C 2.253906 -4.25 2.179688 -4.238281 2.140625 -4.21875 C 2.109375 -4.207031 2.09375 -4.1875 2.09375 -4.15625 C 2.09375 -4.144531 2.101562 -4.125 2.125 -4.09375 C 2.144531 -4.0625 2.195312 -4.003906 2.28125 -3.921875 L 4.90625 -0.90625 L 4.90625 -3.96875 C 4.90625 -4.082031 4.882812 -4.15625 4.84375 -4.1875 C 4.8125 -4.226562 4.738281 -4.25 4.625 -4.25 L 4.625 -4.375 L 5.71875 -4.375 L 5.71875 -4.25 C 5.613281 -4.25 5.539062 -4.226562 5.5 -4.1875 C 5.46875 -4.15625 5.453125 -4.082031 5.453125 -3.96875 L 5.453125 -0.40625 C 5.453125 -0.289062 5.46875 -0.210938 5.5 -0.171875 C 5.539062 -0.140625 5.613281 -0.125 5.71875 -0.125 L 5.71875 0 L 4.390625 0 L 4.390625 -0.125 C 4.492188 -0.125 4.566406 -0.128906 4.609375 -0.140625 C 4.648438 -0.148438 4.671875 -0.171875 4.671875 -0.203125 C 4.671875 -0.222656 4.660156 -0.242188 4.640625 -0.265625 C 4.628906 -0.296875 4.597656 -0.335938 4.546875 -0.390625 L 1.734375 -3.59375 L 1.734375 -0.40625 C 1.734375 -0.289062 1.75 -0.210938 1.78125 -0.171875 C 1.820312 -0.140625 1.894531 -0.125 2 -0.125 L 2 0 L 0.921875 0 L 0.921875 -0.125 C 1.023438 -0.125 1.09375 -0.140625 1.125 -0.171875 C 1.164062 -0.210938 1.1875 -0.285156 1.1875 -0.390625 L 1.1875 -3.96875 C 1.1875 -4.082031 1.164062 -4.15625 1.125 -4.1875 C 1.09375 -4.226562 1.023438 -4.25 0.921875 -4.25 L 0.921875 -4.375 Z M 2.359375 -4.375 "/></g></g></g><g fill="#000000" fill-opacity="1"><g transform="translate(108.42158, 92.348927)"><g><path d="M 0.25 -4.609375 L 0.375 -4.609375 C 0.375 -4.515625 0.390625 -4.453125 0.421875 -4.421875 C 0.460938 -4.390625 0.523438 -4.375 0.609375 -4.375 L 4.34375 -4.375 C 4.4375 -4.375 4.5 -4.390625 4.53125 -4.421875 C 4.570312 -4.453125 4.59375 -4.515625 4.59375 -4.609375 L 4.71875 -4.609375 L 4.71875 -3.578125 L 4.59375 -3.578125 C 4.59375 -3.671875 4.570312 -3.734375 4.53125 -3.765625 C 4.5 -3.796875 4.4375 -3.8125 4.34375 -3.8125 L 2.8125 -3.8125 L 2.8125 -0.390625 C 2.8125 -0.273438 2.828125 -0.203125 2.859375 -0.171875 C 2.890625 -0.140625 2.957031 -0.125 3.0625 -0.125 L 3.0625 0 L 1.90625 0 L 1.90625 -0.125 C 2.007812 -0.125 2.078125 -0.140625 2.109375 -0.171875 C 2.140625 -0.203125 2.15625 -0.273438 2.15625 -0.390625 L 2.15625 -3.8125 L 0.625 -3.8125 C 0.53125 -3.8125 0.460938 -3.796875 0.421875 -3.765625 C 0.390625 -3.734375 0.375 -3.671875 0.375 -3.578125 L 0.25 -3.578125 Z M 0.25 -4.609375 "/></g></g></g></svg>